<?xml version="1.0" encoding="UTF-8"?>
<svg id="Layer_2" data-name="Layer 2" xmlns="http://www.w3.org/2000/svg" viewBox="0 0 328.17 126.42">
  <defs>
    <style>
      .cls-1, .cls-2, .cls-3 {
        fill: none;
      }

      .cls-4 {
        fill: #010101;
      }

      .cls-5 {
        fill: #030303;
      }

      .cls-6 {
        fill: #f6f6f6;
      }

      .cls-7 {
        fill: #020202;
      }

      .cls-8 {
        fill: #fff;
      }

      .cls-2 {
        stroke-linecap: round;
        stroke-linejoin: round;
        stroke-width: .77px;
      }

      .cls-2, .cls-3 {
        stroke: #000;
      }

      .cls-3 {
        stroke-miterlimit: 10;
      }

      .cls-9 {
        fill: #fefefe;
      }

      .cls-10 {
        fill: #0c0c0c;
      }

      .cls-11 {
        fill: #0f0f0f;
      }

      .cls-12 {
        fill: #fdfdfd;
      }
    </style>
  </defs>
  <g id="Layer_1-2" data-name="Layer 1">
    <g id="DISARRAY">
      <path d="M114.57,43.84c.17-.15.39,0,.52-.05.39-.15.41-.62,1.09-.56.74.06,2.79,1.43,3.52,1.9.64.41,2.41,1.47,2.79,2.02.35.5.14.68.15,1.15.08,2.5.26,5.02.24,7.53,0,.3-.11.83-.3,1.06-.09.11-.29.2-.33.26-.06.12,0,.26-.05.38-.2.65-2.55,2.41-3.2,2.91-.42.33-2.23,1.79-2.6,1.87-.17.03-.32,0-.5.05-.23.06-.56.42-.9.53-1.34.42-1.17-.73-1.26-1.64-.27-2.47.09-5.6.2-8.13s.03-5.68.36-8.3c.03-.21.11-.85.24-.97h.02ZM115.21,44.42c0,.17.06.32.06.5.06,1.97-.08,4.02-.12,5.99-.03,1.32,0,2.66-.12,3.98-.12,1.9.09,4.01-.12,5.87,0,.12-.05.21-.09.33,0,.03-.27.36-.06.35s.87-.85,1.09-.99c-.14-.23-.23-.46-.27-.71-.33-1.73-.09-4.23-.08-6.04.03-2.73-.02-5.48.18-8.2,0-.17.12-.46.11-.59s-.39-.55-.59-.5h.02ZM121.07,48.7l-.99-.59-2.63-1.85c.02.12-.05.39,0,.47.02.03.5.29.61.38.32.24.74.67,1.05.85.24.14.59.15.68.44.05.12,0,.27.05.38.3.91.47,1.53.58,2.5.21,1.88.24,3.78.24,5.66l.42-.21-.12-.64.11-7.38v-.02ZM118.82,48.77c-.53-.29-.88-.82-1.35-1.2-.2,4.05-.21,8.13-.65,12.16l2.31-1.76c-.18-1.03-.06-2.09-.11-3.14-.05-1.4-.21-2.81-.24-4.2-.02-.62,0-1.24.05-1.87v.02Z"/>
      <path d="M177.22,45.54s.5.42.61.55c1.21,1.35,2.2,2.56,3.51,3.85.3.3.62.71.91.99.05.05.08.09.15.09.12,0,.55-.76.64-.91.7-1.21,1.26-2.58,1.96-3.79.15-.26.73-1.21.91-1.35.55-.38.79.11,1.12.12.23,0,.64-.11.9-.12.42-.02,1.35-.05,1.21.62-.03.12-.14.17-.17.26-.79,2.55-2.81,4.51-4.25,6.68-.33.52-.61.94-.58,1.55.05,1.27.06,2.53.06,3.79,0,.27-.03.8-.06,1.08-.05.38-.38.7-.74.74s-.58-.17-.9-.21c-.29-.06-.56-.03-.9-.12-.9-.23-1.12-.38-1.26-1.31-.26-1.7-.14-3.52-.41-5.24-.87-1.12-1.97-2.02-2.87-3.13-.94-1.17-1.68-2.5-2.61-3.69-.24-.39,0-.71.41-.82s1.79-.3,2.12-.15c.32.14.12.39.21.53l.02-.02ZM181.49,51.9c-.96-1.03-2.06-1.93-2.97-2.99-.82-.97-1.44-2.08-2.17-3.13l-.56.06c1.02.99,1.76,2.22,2.7,3.26.68.76,1.91,2.02,2.7,2.64.09.08.18.17.3.15ZM188.09,46.03h-1.27c-1.03,1.55-1.75,3.38-2.84,4.89-.52.73-1.17,1.65-2.19,1.23.03.17.15.26.17.46.08.53.11,1.29.12,1.84.05,1.21.03,2.5-.23,3.69l.49.15c.06-.76.05-1.53.09-2.29.08-1.23.11-3,.97-3.95.35-.38.82-.68,1.15-1.09.91-1.08,1.53-2.52,2.58-3.54l.93-1.37.03-.02Z"/>
      <path d="M143.41,55.77l-1.94.3c-.03.44-.55,1.12-.55,1.52,0,.24.52.55.09.97-.23.23-1.47.26-1.71.11s-.35-.93-.32-1.2c.14-1.55,1.09-4.25,1.58-5.84.24-.82.91-3.32,1.27-3.89.08-.12.35-.29.35-.32.03-.14-.05-.27.03-.42.18-.41.97-.52,1.37-.47.15,0,.38.14.47.11.08-.02.08-.14.14-.17,1.21-.76,1.78,2,1.94,2.73.5,2.16.87,5.22.97,7.45.03.47.06,1.37-.47,1.55-.3.09-1.11.3-1.41.3-.12,0-.74-.12-.87-.17-.3-.09-.39-.67-.5-.93-.05-.09-.15-.17-.2-.27-.17-.39-.11-.93-.24-1.34v-.03ZM144.14,47.62l-.71.09c.47.44.49,1.12.58,1.73.29,1.7.53,3.51.71,5.22.09.82.09,1.76.18,2.55.03.2.15.02.29-.02s.29-.08.42-.08c.06-.06-.18-.83-.21-1-.21-1.03-.24-2.08-.38-3.13-.23-1.81-.46-3.61-.9-5.37h.02ZM143.3,54.51l-.41-3.85-1.02,4.22,1.43-.36ZM140.04,57.47c.12.14.33-.5.36-.56.26-.64.47-1.37.59-2.05,0,0-.96,2.61-.96,2.61Z"/>
      <path d="M170.38,55.59l-1.94.3c-.03.46-.55,1.09-.55,1.52,0,.24.52.55.09.97-.23.23-1.47.26-1.71.11s-.35-.93-.32-1.2c.14-1.55,1.09-4.25,1.58-5.84.24-.82.9-3.32,1.27-3.89.08-.12.35-.29.35-.32.03-.14-.05-.27.03-.42.2-.42.96-.5,1.37-.47.14,0,.41.12.47.11s.08-.14.14-.17c1.23-.74,1.78,2,1.94,2.73.5,2.19.85,5.19.97,7.45.03.46.06,1.37-.47,1.55-.3.09-1.11.3-1.41.3-.12,0-.74-.12-.87-.17-.3-.09-.39-.67-.5-.93-.05-.09-.15-.17-.2-.27-.09-.23-.18-1.29-.24-1.34v-.03ZM171.09,47.45l-.71.09c.47.44.49,1.12.58,1.73.32,1.87.58,3.87.77,5.75.06.65.05,1.41.12,2.02.03.2.15.02.29-.02s.29-.08.42-.08c.06-.06-.18-.83-.21-1-.21-1.03-.24-2.08-.38-3.13-.23-1.81-.44-3.61-.9-5.37h.02ZM170.26,54.33l-.41-3.85-1.02,4.22,1.43-.36ZM166.99,57.3c.12.14.32-.47.33-.52.23-.58.42-1.24.55-1.85l-.9,2.37h.02Z"/>
      <path d="M134.8,49.88l-.33,1.65c.38.36.85.62,1.24.96s1.17,1.05,1.43,1.49c.06.12.09.24.09.38-.39,1.73-.67,3.78-1.56,5.33-.36.62-.8.2-1.34.18-.41,0-.5.21-1-.14s-2.63-2.66-2.91-3.2c-.14-.27-.24-.52-.03-.8.11-.15.32-.18.38-.27.12-.18.06-.56.42-.64s.42.12.59.15c.11.02.26-.09.36-.03.02,0,.06.14.12.2.61.5,1.2,1.02,1.76,1.56.05.06.08.08.12,0,.09-.14.23-.65.32-.87.06-.15.33-.5.27-.61-.56-.53-1.11-1.06-1.7-1.58-.33-.29-1.27-.9-1.46-1.21-.27-.49.08-1.99.24-2.53.26-.82.73-1.55,1.05-2.32.24-.58.46-1.75.87-2.16s.91-.11,1.27.2c.62.52,1.24,1.29,1.78,1.9.39.46,1.41,1.4,1.38,2.03-.03.41-.29.36-.52.55-.36.27-.67,1.03-1.15,1.05-.68.02-1.26-.88-1.75-1.24l.05-.02ZM136.64,50.35l.33-.88-2.41-2.97-1.02,3.26.47-1.03c1.11-.58,1.81.9,2.46,1.56.05.05.05.09.14.06h.03ZM136.05,54.63l-.7-.36c.12.35.36.5.29.91-.03.17-.15.15-.18.23-.05.12-.02.42-.06.59-.09.41-.58,1.75-.94,1.91-.29.14-.53-.24-.83-.27.23.35.7.62.91.96.2.29.11.62.42.77.47-1.55,1.02-3.11,1.09-4.74ZM132.44,56.47c-.12-.09-.52-.73-.62-.71-.27.06.03.21.06.24.17.17.35.41.56.47Z"/>
      <path d="M153.64,52.2c-.06.09.39.74.47.9.18.33.35.68.52,1.03.3.61,1.23,2.47,1.31,3.02.15,1.12-1,1.44-1.53.52-.46-.79-.91-2.14-1.24-3.04-.2-.55-.41-1.11-.55-1.67-.21.11-.39.32-.61.42-.15.08-.53.11-.56.21l-.06,3.25c-.08.3-.08,1.08-.41,1.18-.29.09-1.21.14-1.52.08-.41-.06-.42-.68-.46-1.03-.2-3.05-.2-6.42-.12-9.5,0-.14.08-.29.06-.41,0-.18-.17-.26-.18-.42-.05-.64,1.06-.41,1.34-.5.11-.03.09-.23.21-.32.3-.24,1.59-.14,2.05-.15.32,0,.64-.18.93.14.09.11.11.26.17.36.56.82,1.15,1.7,1.65,2.56.27.46.83,1.32.39,1.81-.27.3-.74.74-1.08,1-.24.2-.52.38-.79.55l.02.02ZM154.11,50l-1.44-2.85c-.44-.08-.91-.08-1.34-.23l.12,4.81,2.67-1.73h-.02ZM149.89,47.21l-.18.09.18,1.64v-1.73ZM150.07,54.51v2.61h.24c-.08-.8-.15-1.59-.18-2.4,0-.08.05-.23-.06-.21Z"/>
      <path d="M161.95,52.02l.03.17c.38.56.68,1.15.97,1.76s1.23,2.47,1.31,3.02c.12.87-.67,1.41-1.31.83-.35-.32-1.08-2.31-1.29-2.87-.27-.71-.53-1.43-.73-2.16-.21.11-.39.32-.61.42-.15.08-.53.11-.56.21l-.06,3.2c-.08.3-.06,1.14-.41,1.24-.29.09-1.21.14-1.52.08-.41-.06-.42-.68-.46-1.03-.2-3.05-.2-6.42-.12-9.5,0-.14.08-.29.06-.41,0-.24-.36-.42-.06-.71.35-.32.91-.12,1.21-.21.11-.03.09-.23.21-.32.3-.24,1.59-.14,2.05-.15.32,0,.64-.18.93.14.09.11.11.26.17.36.58.8,1.15,1.7,1.65,2.56.27.46.83,1.32.39,1.81-.27.3-.74.74-1.08,1-.24.2-.52.38-.79.55ZM162.42,49.82l-1.44-2.85c-.44-.08-.91-.08-1.34-.23l.12,4.81,2.67-1.73h-.02ZM158.21,47.03l-.18.09.18,1.68v-1.78ZM158.39,56.94h.24c-.08-.82-.15-1.64-.18-2.46,0-.08.05-.23-.06-.21"/>
      <path d="M126.3,48.05c.18.93.14,1.88.18,2.82l.18,5.28c0,.26-.02.5-.03.74h.74c.02-.17-.06-.33-.06-.5-.08-1.96.02-3.92.06-5.87.02-.74-.11-1.84.02-2.52.17-.93,1.23-.82,1.29.09,0,.2-.06.35-.06.53-.03,2.53.14,5.4-.18,7.89-.17,1.31-.59,1.47-1.87,1.4-.46-.03-1.11-.06-1.34-.5-.32-.59-.15-2.49-.17-3.26-.03-1.73-.17-3.54-.06-5.28.02-.26.15-1.26.27-1.44.21-.32,1.84-.26,2.05.02.38.49-.73.61-1.02.62l-.02-.02Z"/>
    </g>
    <g id="Desnarler">
      <path d="M189.96,54.51h.75v2.54s0,.08,0,.13c0,.05,0,.09.02.14,0,.04.02.08.02.11h.31v.3h-.62l-.05-.36h-.02c-.07.11-.17.21-.3.29-.13.08-.29.11-.46.11-.34,0-.6-.1-.77-.29s-.24-.5-.24-.91c0-.2.02-.37.08-.51s.13-.28.24-.38c.11-.1.23-.18.37-.23s.3-.08.48-.08h.17s.1,0,.14.02c.04,0,.08.02.12.02s.08.02.13.03v-.65h-.38v-.31l.02.02ZM189.68,57.48c.19,0,.33-.05.44-.15.11-.1.18-.24.22-.43v-1.07c-.07-.05-.15-.08-.23-.1-.08-.02-.2-.03-.33-.03-.24,0-.44.07-.58.21-.14.15-.21.37-.21.68,0,.12,0,.24.03.35.02.11.06.2.11.29.06.08.12.15.21.19.09.05.2.07.33.07h0Z"/>
      <path d="M193.55,57.45c-.06.05-.12.1-.2.14s-.15.08-.24.11c-.09.03-.18.06-.28.07s-.2.02-.29.02c-.19,0-.35-.03-.49-.08-.14-.06-.26-.14-.36-.24s-.17-.24-.22-.38c-.05-.15-.07-.31-.07-.5s.02-.37.08-.51c.06-.15.13-.28.24-.38.1-.1.23-.18.37-.24s.31-.08.48-.08c.13,0,.25.02.38.05s.24.1.33.19c.1.1.17.22.22.38.05.16.07.38.06.64h-1.78c0,.28.07.48.22.62s.34.2.6.2c.08,0,.16,0,.24-.03.08-.02.15-.04.23-.07.07-.02.14-.06.2-.09s.1-.07.13-.09l.14.26h.02ZM192.58,55.69c-.1,0-.2,0-.29.03s-.17.06-.24.11c-.07.05-.12.11-.17.2-.04.08-.07.18-.08.3h1.43c-.02-.2-.08-.36-.2-.47s-.27-.17-.45-.17h0Z"/>
      <path d="M195.89,57.11c0-.1-.04-.17-.11-.23-.07-.06-.17-.1-.29-.13-.11-.03-.24-.07-.37-.09s-.25-.07-.37-.11c-.11-.05-.21-.11-.29-.19s-.11-.19-.11-.33c0-.11.02-.22.07-.3s.11-.15.2-.2.18-.09.29-.12c.11-.02.23-.04.34-.04.21,0,.4.02.55.08s.28.11.38.17l-.15.29c-.1-.06-.21-.11-.33-.16-.11-.05-.27-.07-.44-.07-.07,0-.13,0-.2.02-.07.02-.12.03-.18.07-.06.02-.1.07-.13.11-.03.04-.05.1-.05.16,0,.08.04.14.11.19s.17.08.29.11c.11.03.24.06.37.08s.26.07.37.11c.11.05.2.11.29.2.07.08.11.2.11.33,0,.21-.08.38-.25.52s-.42.2-.75.2c-.1,0-.2,0-.3-.02s-.19-.04-.28-.07-.16-.07-.24-.11-.13-.08-.17-.11l.19-.3s.09.07.15.11.13.07.2.11c.07.03.15.06.24.07s.17.02.25.02.16,0,.23-.02c.07-.02.14-.03.19-.07.06-.03.1-.07.13-.11.03-.05.05-.11.05-.17h0Z"/>
      <path d="M197.08,56.24v-.24s0-.1,0-.14c0-.05,0-.09-.02-.12h-.31v-.3h.62l.04.38h.02s.07-.11.12-.15c.05-.05.11-.1.18-.14.07-.04.14-.07.23-.1.08-.02.17-.03.26-.03.14,0,.27.02.38.05.11.03.2.08.27.16s.13.19.16.32c.04.13.06.3.06.51v1.32h-.37v-1.25c0-.25-.04-.45-.12-.57s-.24-.2-.45-.2c-.08,0-.15.02-.23.05-.07.03-.15.07-.2.13s-.11.11-.16.18c-.05.07-.08.14-.1.22v1.44h-.36v-1.5h-.02Z"/>
      <path d="M199.91,55.61c.13-.07.28-.13.45-.16.16-.03.33-.05.49-.05s.29.02.38.07c.1.05.18.11.24.19.06.08.1.17.11.27.02.1.03.2.03.3,0,.11,0,.24,0,.38,0,.13,0,.26-.02.4,0,.15,0,.3.02.44h.31v.3h-.61l-.04-.34h-.02s-.05.07-.08.11-.08.08-.15.13c-.06.04-.13.08-.22.11-.09.03-.19.05-.3.05-.23,0-.41-.06-.54-.17s-.2-.28-.2-.48c0-.15.03-.29.11-.39.07-.11.17-.19.3-.24s.29-.09.47-.1.39,0,.62.04c.02-.14.02-.26,0-.35,0-.1-.03-.17-.07-.22-.04-.06-.09-.1-.16-.11-.07-.02-.15-.03-.26-.03-.14,0-.27.02-.4.06s-.24.08-.33.11l-.11-.27v-.03ZM200.59,57.47c.09,0,.16-.02.24-.04.07-.02.14-.07.2-.11s.1-.09.14-.14c.03-.05.07-.1.08-.15v-.33c-.16-.02-.31-.04-.44-.04s-.25.02-.35.04c-.1.03-.17.07-.23.14-.06.07-.08.14-.08.24s.03.19.11.26c.07.07.19.11.35.11h0Z"/>
      <path d="M202.48,57.74v-.31h.62v-1.69h-.62v-.31h.86l.07.3h.02c.11-.1.22-.18.35-.24s.29-.1.46-.1c.11,0,.19.02.25.06s.11.1.15.17c.03.07.06.17.07.28s.02.24.02.38h-.33c0-.19-.02-.33-.06-.42s-.11-.14-.21-.14c-.1,0-.18.02-.26.04-.07.02-.15.07-.2.1-.06.04-.11.08-.15.12s-.07.07-.09.1v1.35h.88v.31h-1.86,0Z"/>
      <path d="M205.49,54.51h.77v2.45c0,.19.03.32.1.4.07.07.15.11.28.11.09,0,.17-.02.24-.05.08-.03.16-.08.26-.15l.16.25s-.11.08-.16.11c-.06.03-.12.07-.18.08-.07.02-.12.04-.19.05-.07.02-.12.02-.17.02-.11,0-.21-.02-.3-.04-.09-.03-.16-.07-.23-.14s-.11-.15-.14-.25-.05-.24-.05-.39v-2.14h-.41v-.31h.02Z"/>
      <path d="M210.14,57.45c-.06.05-.12.1-.2.14s-.15.08-.24.11c-.09.03-.18.06-.28.07s-.2.02-.29.02c-.19,0-.35-.03-.49-.08-.14-.06-.26-.14-.36-.24s-.17-.24-.22-.38c-.05-.15-.07-.31-.07-.5s.02-.37.08-.51c.06-.15.13-.28.24-.38.1-.1.23-.18.37-.24s.31-.08.48-.08c.13,0,.25.02.38.05s.24.1.33.19c.1.1.17.22.22.38.05.16.07.38.06.64h-1.78c0,.28.07.48.22.62s.34.2.6.2c.08,0,.16,0,.24-.03.08-.02.15-.04.23-.07.07-.02.14-.06.2-.09.06-.03.1-.07.13-.09l.14.26h.02ZM209.18,55.69c-.1,0-.2,0-.29.03-.09.02-.17.06-.24.11s-.12.11-.17.2c-.04.08-.07.18-.08.3h1.43c-.02-.2-.08-.36-.2-.47s-.27-.17-.45-.17h0Z"/>
      <path d="M210.78,57.74v-.31h.62v-1.69h-.62v-.31h.86l.07.3h.02c.11-.1.22-.18.35-.24s.29-.1.46-.1c.11,0,.19.02.25.06s.11.1.15.17c.03.07.06.17.07.28s.02.24.02.38h-.33c0-.19-.02-.33-.06-.42s-.11-.14-.21-.14c-.1,0-.18.02-.26.04-.07.02-.15.07-.2.1-.06.04-.11.08-.15.12s-.07.07-.09.1v1.35h.88v.31h-1.86,0Z"/>
    </g>
    <g id="Arrow">
      <path class="cls-1" d="M283.19,89.36h-.65l.36.86c.25-.17.11-.6.29-.86Z"/>
      <path class="cls-1" d="M283.68,100.11h.79l-.22-.5c-.1-.07-.51.39-.57.5Z"/>
      <path class="cls-1" d="M284.61,94.42c-.05.06-.33.48-.28.52l.64-.07-.22-.5c-.1-.02-.09-.02-.14.05Z"/>
      <path d="M290.31,115.08l-.72.14-.29-1.65-.79.14-.28-1.64,3.64-.76-.29-1.53-.78.06-.15-.78-.7.06-.15-.78-.79.14-.07-.79-.8.04-.14-.76-.79.14-.14-.86-.79.14-.07-.79-.79.14-.14-.86-.72.14-.14-.79-.79.14-.14-.86-.72.14-.14-.79-.79.14-.14-.86-.68.14c-.14-.04-.18-.62-.19-.78l-.79.07-.14-.86c-.37.16-.81.14-1.18.22-.09.02-.14.02-.18.11l3.22,17.64.64-.07s-.17-.28,0-.39l.69-.18-.11-.79.6-.08.11-.1-.14-.81.72-.07-.06-.85.71-.15-.14-.86.79-.14.29,1.64.85-.06.25,1.51c.11.17.59-.04.76-.07.01,0,.03,0,.04,0-.1-.55-.18-1.1-.29-1.64l-.79.14-.29-1.65-.72.14-.33-1.58-.68.08.06.85-.71.19.14.75-.72.14.14.86-.79.07.14.85-.71.15-2.58-14.04.71-.06.15.78.79-.14.14.86.79-.14.07.79.78-.06.15.78.79-.14.07.79.79-.14.14.86.79-.14c.03.8.06.86.85.72l.15.78.79-.14.14.86.79-.14.14.76.72-.11.14.86.79-.14.06.78-3.65.65.29,1.72.71-.14.29,1.64.79-.14.29,1.65.79-.14.11.79-.76.14.14.86c-.25,0-.48.1-.72.14.04.18.02.72.19.78l1.39-.21-.14-.85.64-.07-.43-2.51Z"/>
      <path d="M287.7,117.23c.05.29.1.57.14.86.26-.09.53-.09.79-.14-.06-.29-.15-.56-.14-.86-.25.04-.5.09-.75.14h0s-.04,0-.04,0Z"/>
      <path d="M287.74,117.23h0s-.03,0-.04,0h.04Z"/>
      <path d="M262.18,92.93c.56-.77,1.26-1.75,2.07-2.17.43-.23.2-.32.31-.52.03-.06.97-.76,1.11-.86.8-.58,1.67-1.05,2.58-1.45h.1c-.03.28.04.23.29.18.42-.1.22-.31.35-.43.05-.05.52-.18.64-.22,1.25-.39,2.58-.43,3.87-.39l-.29.72h.45l.41-.68c1.22.08,2.41.39,3.58.76-.08.14-.35.1-.5.19-.22.11-.31.35-.02.44.31.1.75-.1,1.13-.05.45.06,1.18.88,1.34.18-.27-.84-.97-1.48-1.42-2.25h-.27c-.35.12.12.72.14.93-1.15-.41-2.34-.68-3.55-.86h0s.35-.62.35-.62l-.46-.24-.52.79c-1.73-.1-3.38.14-5.04.57l.07-.72-.6.06-.05.93c-3.36,1.23-5.91,3.96-7.65,7.01-2.95,5.2-3.76,12.25-3.17,18.18.07.71.2,1.42.29,2.12l.22-.03.07-.14c-.73-7.11-.11-15.43,4.17-21.4Z"/>
      <path d="M287.42,80.36c.13.31-.06.73.28.76l.03-.22c1.52,2.18,2.53,4.81,2.76,7.45l-.22-.07-.12.47c.51.36.43.64.41,1.22-.05,1.27-.43,2.83-.94,4-.08.17-.45.97-.53,1.05-.09.09-.19,0-.25.04-.46.24-.14.5-.25.74-.07.17-.69.89-.86,1.08-.87.97-1.94,1.71-3.01,2.43.02-.21.05-.77-.32-.61-.05.02-.74.66-.83.75-.13.14-.62.7-.61.83l.11.18h.02s2.12,0,2.12,0l-.22-.79c1.58-.76,2.88-2.01,3.98-3.36l.29.5.46-.25-.28-.58-.25.11c-.16.05.35-.64.38-.69,1.02-1.73,1.62-3.73,1.59-5.75l.35.22c.12-.28.27-.63-.12-.77-.24-.09-.1.13-.24.13-.02-2.72-.93-5.38-2.29-7.71v-.09c.23.02.27-.42.2-.51-.09-.1-.6-.07-.63-.09-.04-.03-.35-.54-.56-.89h-.71c.12.17.22.32.26.42ZM283.68,100.11c.06-.1.47-.57.57-.5l.22.5h-.79Z"/>
      <path d="M274.21,118.32c-.31-.77-.69,0-1.07-.13-.19-.06-1.22-.95-1.43-1.15-3.21-2.91-5.51-6.93-6.24-11.21h.29l.07-.58h-.43c-.26-1.69-.23-3.51.26-5.15.23-.05,1.01.31,1.1.04.1-.33-.8-.33-1-.47h0c.27-1.17.81-2.28,1.51-3.24.19-.27,1.13-1.29,1.13-1.45,0-.67-.68-.18-.93.07-1.12,1.13-1.96,2.81-2.37,4.34l-.43-.14-.04.43.33.19c-.97,4.15.06,8.61,2.15,12.24-.12.16-.33.1-.5.1l.15.56.71-.02c1.94,3.13,4.79,6.04,8.19,7.57.33.14,1.74.76,1.99.6l.03-.19c-1.34-.63-2.79-1.18-3.91-2.15l.43-.26Z"/>
      <path d="M283.1,80.93h0s0,0,0-.02v.02Z"/>
      <path d="M281.43,80.28c.27.25.5.8.54.83.06.05.2-.05.31-.03.5.1,2.2,2.55,2.5,3.09.31.54.97,1.91,1.04,2.48.03.21-.23.41-.19.65h.35c.46,2.23.19,4.5-.72,6.58-.19-.14-.23-.47-.5-.55-.29-.08-.39.61-.52.85-.09.18-.27.44-.39.62-.07.11-.64.61-.14.65.21.02,1.18-.31,1.51-.35.25-.04.56.08.74-.12.02-.09-.37-.3-.34-.64,0-.09.52-1.22.61-1.46.06-.15.24-.36.27-.45.02-.08-.09-.14-.07-.22.1-.59.28-1.16.32-1.75.07-1.04-.03-2.08-.14-3.11l.64.07-.12-.51-.68-.17c-.49-1.68-1.27-3.29-2.37-4.66-.26-.32-.74-.72-.93-1.01-.04-.05-.09-.07-.07-.16h0s0-.01,0-.01c0,0,0,0,0,.01l.35-.11-.13-.43c-.06-.05-.63.15-.79.08-.12-.05-.4-.3-.64-.52h-.87c.15.11.28.22.41.34ZM284.33,94.95s.23-.47.28-.52c.06-.06.05-.07.14-.05l.22.5-.64.07Z"/>
      <path d="M294.85,81.12c.2.93.61,2.74.6,3.63,0,.23-.22.41-.22.57,0,.14.18.22.23.34.1.23.13,1.81.13,2.17-.04,4.23-1.31,8.97-4.09,12.24-.11.13-.8.89-.86.93-.05.02-.06.07-.14.02l-.05-.14c-.62.1-.39.2-.46.61-.04.22-1.54,1.21-1.84,1.38-.31.18-1.97.89-2.02,1.06-.1.35.36.22.53.17,1.13-.32,2.33-1.22,3.29-1.87l.03.22h0c.66-.03.39-.43.57-.75.16-.27.99-.93,1.26-1.25.91-1.04,1.75-2.43,2.34-3.68.23-.47.39-1.09.62-1.53.08-.16.27-.27.32-.4.07-.17-.03-.32-.02-.51.06-.58.42-1.53.55-2.18.36-1.88.66-4.93.39-6.72-.31-1.99-.52-3.7-.95-5.51h-.53c.1.39.22.78.3,1.18Z"/>
      <polygon points="269.35 100.19 269.35 100.19 269.35 100.18 269.35 100.19"/>
      <path d="M269.35,100.19s0,0,0,0h0s0,0,0,0c.22,0,.25.26.47.29.18.02.29,0,.32-.19.03-.18-.28-1.62-.36-1.86-.1-.33-.19-.42-.54-.26-.19.08-1.11,1.05-1.19,1.24-.06.14-.07.27-.06.41.43.1.47-.29.76-.5.02,0,.19.24.21.29.06.19-.06,1.13-.04,1.46.13,2.63,1.38,5.44,2.88,7.57.19.27.96,1.1,1.03,1.27.03.08-.04.18.02.32.18.43.38.21.55.31.42.26,1.15,1.18,1.65,1.58,1.19.96,2.68,1.87,4.19,2.15-.61-.43-1.33-.74-1.97-1.14-4.33-2.71-7.88-7.71-7.92-12.96Z"/>
      <path d="M301.62,90.32l-.25-.02-.1.11c-.04,1.1-.09,2.19-.24,3.28-.72,5.22-3.82,10.99-8.48,13.67-.27.15-1.21.53-1.34.67-.08.09-.09.13-.07.25h0c.15.14,1.53-.51,1.77-.64,5.32-2.78,8.96-10.6,8.85-16.45,0-.12-.1-.83-.14-.86Z"/>
      <path d="M282.84,91.07l.28-.03.49-2.32-.71.07s0,0,0,0h0s0,0,0,0c-.09-3.02-3-5.48-5.57-6.64-1.3-.59-3.9-1.35-5.29-1.15-.28.04-.63.27-.22.35.64.13,1.37.12,2.05.24,3.67.65,8.01,3.34,8.73,7.24l-.71.04c-.14.19.89,1.84.93,2.2ZM283.18,89.36h0c-.18.26-.04.69-.29.86l-.36-.86h.64Z"/>
      <polygon points="282.9 88.8 282.9 88.79 282.89 88.79 282.9 88.8"/>
      <path d="M277.18,107.86c-.31-.23-.62-.47-.92-.73-.06-.14.47-.83.26-1.04l-.29-.08-.36.76c-.98-.8-1.63-1.94-2.37-2.97-.07-.22.47.06.64-.04h0s.05-.12.05-.17c-.02-.17-.64-.84-.79-1.05-.14-.19-.35-.74-.58-.72l-.17.12c.05.36-.34,1.64-.16,1.86.06.09.14.1.25.1.28,0,.19-.23.4-.22,0,.16.06.33.13.47.87,1.74,2.54,3.58,4.27,4.48.19.1.99.54,1.13.35.02-.14-.02-.19-.1-.29-.18-.18-1.07-.61-1.38-.84ZM272.86,103.18l.07-.5s.42.37.35.5h-.43Z"/>
      <path d="M268.94,95.58c.23-.06,1.61-2.02,1.95-2.29.04-.1.07-.34.02-.42h0c-.19-.28-1.39.47-1.67.57-.23.09-.53.18-.76.24-.56.15-1.28-.03-.99.9.6-.19.96-.31,1.12.43.04.19-.12.69.34.56Z"/>
      <path d="M268.52,120.45c.54-.08,1.08-.15,1.61-.29l-.22-.47-.57.04v-.02c.19-.3-.09-.62-.42-.54-.24.06-1.74.88-1.96,1.05-.07.06-.14.11-.16.2l.02.2c.06.13.22.15.33.19.32.1,2.51.77,2.64.74.1-.03.21-.1.22-.23.04-.43-1.26-.64-1.59-.75-.12-.1,0-.12.1-.14Z"/>
      <polygon points="262.33 112.36 262.33 112.36 262.32 112.36 262.33 112.36"/>
      <path d="M262.33,112.36h0s0,0,0,0h.01l.29-.53c-.16-.46-.65-.08-.97-.04-.3.04-.83.07-1.13.07-.16,0-.68-.21-.76.05-.11.35.28.35.45.47.29.19.58.38.86.57.32.23.97.97,1.36.84.43-.14-.28-.72-.31-.93h1.08l.1-.35.18.14-.07-.29h-1.07Z"/>
      <path d="M294.39,99.57c0,.13.52.9.63,1.13.14.34.15,1.13.67.84.06-.44.66-1.46.65-1.83,0-.19-.16-.29-.35-.24-.37.1-.32,1.18-.84.6.64-.1.6-.93.57-1.46h0c-.52.08-.45.57-.5,1-.19-.15-.83-.52-.83-.03Z"/>
      <path d="M277.25,102.41l-1.24-.08c-.23.23,1.01,1.46,1.09,1.77h0c.19.14.44.14.55-.1.06-.27-.37-.47-.41-.72-.06-.31.44-.67,0-.87Z"/>
      <path d="M291.21,115c.16.16,1.92-.55,2.12-.78.08-.1.13-.15.1-.29h0c-.08-.09-2.08.72-2.16.81-.06.09-.08.15-.06.26Z"/>
      <path d="M279.81,81.26l-1.43.64.21.47c.1.06,1.06-.59,1.3-.54l-.07-.57Z"/>
      <path d="M291.88,90.29c.02.07.5.62.59.71.06.06.07.09.17.07l.21-.44-.74-.84c-.12.15-.29.29-.23.5Z"/>
      <polygon points="292.65 91.08 292.64 91.08 292.64 91.08 292.65 91.08"/>
      <path d="M262.61,82.41l.51-.11.14-1.1c-.14,0-.43,0-.51.12l-.14,1.09Z"/>
      <path d="M276.02,83.68l.33.38.73-.61c-.02-.17-.18-.43-.37-.38l-.69.61Z"/>
      <path d="M259.31,95.01c.09.06.43-.27.43-.39l-.54-.82-.32.47.43.76h0Z"/>
      <path d="M289.7,88.5c.3-.64-.29-.82-.79-1.01-.15.71.32.7.79,1.01Z"/>
      <polygon points="258.42 92.48 258.05 91.8 257.67 92.25 258.05 92.87 258.42 92.48"/>
      <path d="M270.34,119.44s.29.47.41.49l.67-.2h0s-.39-.48-.39-.48l-.68.19Z"/>
      <polygon points="289.72 98.5 289.85 99.24 290.35 98.99 290.21 98.24 289.72 98.5"/>
      <path d="M273.35,88.53c0-.15-.22-.25-.35-.25h0c-.07.34-.25.72-.27,1.06,0,.14-.06.2.09.3l.54-1.11Z"/>
      <path d="M263.32,86.49l-.06-.78h0c-.14,0-.44.06-.49.19l.06.74.49-.15Z"/>
      <polygon points="274.18 109.77 274.65 109.24 274.33 108.85 273.86 109.38 274.18 109.77"/>
      <polygon points="290.43 81.98 290.47 81.48 289.77 81.22 289.64 81.69 290.43 81.98"/>
      <path d="M289.77,105.62h-.49c-.44,1.28.35,1.01.49,0Z"/>
      <polygon points="262.61 85.14 263.08 84.99 263.11 84.27 262.61 84.35 262.61 85.14"/>
      <path d="M287.2,93.51l.47.63.39-.31c-.32-.35-.35-.64-.86-.32Z"/>
      <polygon points="275.92 116.52 275.44 116.9 275.83 117.23 276.37 116.83 275.92 116.52"/>
      <polygon points="270.05 111.5 269.42 111.64 269.63 112.18 270.28 111.99 270.05 111.5"/>
      <path d="M269.63,91.44s-.19-.86-.25-.93c-.1-.13-.51-.14-.41.12.05.14.47,1.01.66.81Z"/>
      <path d="M263.97,112.46c.23.47.21.53.79.47l-.08-.56c-.14-.02-.7-.06-.71.1Z"/>
      <polygon points="268.48 88.93 268.63 89.72 269.05 89.56 268.98 88.86 268.48 88.93"/>
      <path d="M285.69,91.8c-.33-.09-.76-.47-.93.03l.68.38.25-.41Z"/>
      <path d="M284.98,80.27l.03.51c.08.12.46.05.61.06l-.08-.56h0s-.56,0-.56,0Z"/>
      <path d="M272.31,118.75l-.53.2c.29.43.45.49.93.28.06-.1-.31-.42-.4-.48Z"/>
      <polygon points="272.71 119.24 272.71 119.23 272.71 119.23 272.71 119.24"/>
      <path d="M263.38,98.54c.04-.23-.5-.56-.56-.52l-.14.45c.03.09.5.38.56.33,0,0,.14-.25.14-.27Z"/>
      <path d="M281.18,81.34h0l-.22-.5-.72.22c-.05.16.04.12.09.16.35.32.37.28.84.12Z"/>
      <polygon points="268.7 83.7 269.33 83.61 269.42 83.2 268.77 83.13 268.7 83.7"/>
      <path d="M266.34,93.59h0l-.61-1c-.1.12-.27.16-.2.33.06.14.68.79.8.67Z"/>
      <polygon points="272.28 110.5 271.78 110.75 272.04 111.21 272.49 110.95 272.28 110.5"/>
      <path d="M292.08,82.79l.52.33c.09-.02.2-.33.15-.43l-.5-.28h0s-.18.38-.18.38Z"/>
      <path d="M290.35,103.25h0c-.14,0-.36-.06-.47.06l-.1.64.47-.14.1-.57Z"/>
      <path d="M277.23,115.32l.39.25c.09-.07.47-.39.4-.49h0s-.39-.21-.39-.21l-.39.45Z"/>
      <polygon points="261.16 96.36 260.78 96.02 260.54 96.48 260.92 96.81 261.16 96.36"/>
      <path d="M284.54,87.11c-.06-.23-.62.12-.72.21-.08.07-.17.13-.14.25h0c.27-.03.97-.02.86-.46Z"/>
      <path d="M265.26,112.36c.13.45.21.57.72.5l-.14-.47-.58-.03Z"/>
      <path d="M279.56,111.99c-.19-.04-.78.91-.1.86,0-.15.37-.8.1-.86Z"/>
      <path d="M293.36,92.01c.18-.35.34-.56-.1-.79-.31.27-.34.68.1.79Z"/>
      <polygon points="274.79 108.38 275.12 108.77 275.43 108.39 275.05 108.06 274.79 108.38"/>
      <polygon points="258.94 93.39 258.7 93.02 258.33 93.41 258.55 93.8 258.94 93.39"/>
      <path d="M263.86,88.86l-.38.26.13.46c.43-.1.56-.38.25-.72Z"/>
      <polygon points="263.1 83.55 263.11 82.99 262.62 83.14 262.61 83.63 263.1 83.55"/>
      <polygon points="264.25 99 263.75 98.67 263.61 99.16 264.11 99.39 264.25 99"/>
      <path d="M262.03,97.31c-.12.3-.31.67.17.71.39-.34.26-.52-.17-.71Z"/>
      <path d="M263.46,80.05c-.48-.02-.58,0-.64.47l.14.08.43-.05.07-.5Z"/>
      <polygon points="264.47 91.33 264.69 91.79 265.11 91.65 264.79 91.08 264.47 91.33"/>
      <polygon points="265.54 92.27 265.26 91.79 264.9 92.04 265.3 92.58 265.54 92.27"/>
      <path d="M291.43,82.41l.06-.49h0l-.43-.15c-.19.42-.14.6.35.64Z"/>
      <path d="M263.72,88.35l-.04-.43h0s-.47.21-.47.21l.04.43c.19.02.32-.12.47-.22Z"/>
      <polygon points="286.42 80.89 286.84 80.91 286.75 80.42 286.34 80.33 286.42 80.89"/>
      <path d="M271.07,111.1l-.36.14.22.46.35-.07h0c.06-.08-.14-.43-.21-.53Z"/>
      <path d="M279.02,113.79l.14-.49h0l-.35-.15-.2.39c0,.08.35.3.42.25Z"/>
      <polygon points="269.77 81.84 269.14 81.85 269.06 82.2 269.77 82.13 269.77 81.84"/>
      <polygon points="290.47 100.11 290.42 99.75 289.95 99.89 289.99 100.32 290.47 100.11"/>
      <path d="M294.71,84.15h0l-.24-.15-.22.35c.22.52.49.21.46-.2Z"/>
      <path d="M277.06,116.07l-.36-.27-.25.24c.14.22.67.43.61.03Z"/>
      <path d="M275.01,84.77h0l.46.21.19-.19c.02-.1-.21-.31-.31-.31l-.32.29Z"/>
      <path d="M294.15,93.73c.13.1.64-.47.25-.64-.18.1-.46.49-.25.64Z"/>
      <path d="M257.3,91.58l.49-.23-.06-.35c-.11-.09-.55.39-.43.57Z"/>
      <polygon points="275.93 107.66 275.54 107.34 275.37 107.69 275.76 107.91 275.93 107.66"/>
      <path d="M284.32,80.81v-.54l-.34.1c.06.22.03.6.34.43Z"/>
      <polygon points="288.16 87.21 287.91 87.14 287.95 87.64 288.2 87.71 288.16 87.21"/>
      <path d="M263.45,87.41l-.02-.35c-.1.1-.51.22-.47.39.05.19.49-.05.49-.05Z"/>
      <path d="M268.42,111.95c.16.18.1.53.43.47l-.14-.57-.28.1Z"/>
      <path d="M275.15,117.77c-.11-.1-.4-.52-.57-.32-.07.09.4.65.57.32Z"/>
      <path d="M295.33,95.52l-.36.29.04.28c.19-.16.63-.31.32-.57Z"/>
      <polygon points="290.06 104.69 289.57 104.7 289.49 104.98 289.98 104.97 290.06 104.69"/>
      <path d="M293.73,83.45c0-.12-.09-.2-.22-.18-.36.62.27.72.22.18Z"/>
      <path d="M272.94,102.68l-.07.5h.43c.06-.14-.32-.54-.35-.5Z"/>
    </g>
    <g>
      <path d="M10.94,60.66c-.03-.52.85-1.42.16-1.68-.28.15-.2.52-.28.69-.15.35-.49-.27-.61-.35-.86-.57-1.41-.43-2.33-.12.18-1.19,1.72-1.27,2.38-.36.08.11.12.36.12.36.4.3.29-1.03.11-1.16-.15-.11-.39.07-.58.04-.14-.02-.28-.17-.46-.19-.67-.07-1.16-.15-1.63.43-.67.82-.6,2.44-.05,3.3.28.43,1.01.53,1.23.73.1.09.07.24.14.33.08.1.56.21.13.36-.18.06-.35-.03-.52-.03-.3.32.83.66,1.04.45.17-.17.19-.38.17-.61-.02-.22-.35-.13-.23-.43.04-.09,1.15-.64,1.31-.56.11.06.31.62.54.39.2-.2-.63-1.24-.65-1.59ZM9.55,61.89c-1.64.37-2.37-2.23-.71-2.57.74-.15,1.56.39,1.65,1.15.05.41-.46,1.31-.93,1.42Z"/>
      <path d="M15.87,60.44c-.03-.52.85-1.42.16-1.68-.28.15-.2.52-.28.69-.15.35-.49-.27-.61-.35-.86-.57-1.41-.43-2.33-.12.18-1.19,1.72-1.27,2.38-.36.08.11.12.36.12.36.4.3.29-1.03.11-1.16-.15-.11-.39.07-.58.04-.14-.02-.28-.17-.46-.19-.67-.07-1.16-.15-1.63.43-.67.82-.6,2.44-.05,3.3.28.43,1.01.53,1.23.73.1.09.07.24.14.33.08.1.56.21.13.36-.18.06-.35-.03-.52-.03-.3.32.83.66,1.04.45.17-.17.19-.38.17-.61-.02-.22-.35-.13-.23-.43.04-.09,1.15-.64,1.31-.56.11.06.31.62.54.39.2-.2-.63-1.24-.65-1.59ZM14.47,61.68c-1.64.37-2.37-2.23-.71-2.57.74-.15,1.56.39,1.65,1.15.05.41-.46,1.31-.93,1.42Z"/>
      <g id="Nonsense">
        <path d="M2.19,36.15c.23.96,1.05,1.84,2.1,1.4.14-.06,1.04-.85.96-.36-.06.35-.82.9-1.2.82-.03.28.33.4.3.69-.07.81-1.54.33-1.17-.04.09-.09.6.25.66-.11-.33.01-.29-.34-.44-.49-.22-.22-.95-.51-1.2-.82v-1.09h0Z"/>
        <path d="M2.39,30.49c.42.38,1.07.45,1.59.23.15-.07.74-.76.81-.39.11.55-.78.87-1.2.93,1.09.95-.4,1.61-.87.66l.76-.11c-.5-.13-.4-.85-1.09-.76v-.55h0Z"/>
        <path class="cls-4" d="M2.39,35.4v-.76c.46-.49.9-.56,1.54-.48.22.02.54.24.7.22.1,0,.21-.2.32-.17.26.05.41,1.31.11,1.31-.19,0-.35-1.09-1.53-.98-.56.05-.81.5-1.15.88Z"/>
        <path d="M2.39,27.44v-.44c.54-.1.99.13,1.48.21.15.02.34-.14.48-.05.23.14.31,1.26.05,1.26-.15,0-.29-.49-.38-.6-.44-.51-1.04-.37-1.64-.38Z"/>
        <path d="M2.39,21.65c.61.05,1.3-.15,1.86.16-.01.5-1.49.19-1.86.27v-.44Z"/>
        <path class="cls-7" d="M2.39,22.75c.4.02,1.93-.34,1.86.27-.02.13-1.63.05-1.86.16v-.44Z"/>
        <path class="cls-7" d="M2.39,13.59c.81-.19.94,0,.87.82s-.5-.44-.87-.38v-.44Z"/>
        <path class="cls-4" d="M2.39,20.68c.36.08,1.73-.22,1.75.27,0,.17-1.55.07-1.75.16v-.44Z"/>
        <path class="cls-4" d="M2.52,43.91c.4.08,1.62-.26,1.53.38-.02.12-1.32.02-1.53.05v-.44h0Z"/>
        <path class="cls-7" d="M2.39,16.75v-.44c.43-.06.84-.83,1.2-.38-.24.5-.7.68-1.2.82Z"/>
        <path class="cls-11" d="M2.63,42.17c.31.12.3.31,0,.44v.33c.32.08.33.67,0,.76h-.11v-1.64s.1.08.11.11Z"/>
        <path class="cls-10" d="M2.39,17.84v-.76c.32.11.32.65,0,.76Z"/>
        <path d="M4.9,16.64c-.05-.25.03-.17.14-.25.39-.25.94-.3.84-.96-.47.21-.84.36-1.35.1-.89-.46-.64-2.17.59-1.73-.56-1.2.77-2.06,1.51-.91.26.41.21.87.24.91.01.02.27-.11.51-.03,1.47.52.36,2.92-1.06,1.45-.1.92.76.93,1.2,1.42h-2.62Z"/>
        <path d="M5.14,72.42c.03-.28,0-.61.06-.87.02-.12,0-.43.21-.33.34.16.04.96.21,1.21.16.23.76-.05.93.26-.67.73-.05.71,0,.88.07.24-.57.71.11,1.08-.15.32-1.01.09-1.09.16-.17.63.41.3.44.76-.38.01-.51.28-.71.55-.09,0-.39-.7-.66-.66-.4,1.77-.45-.43-.54-.55-.15-.22-.8.04-.93-.27-.09-.21.2-.16.27-.27.09-.14.07-.38.17-.55-1.02.02-.13-.37-.1-.6.04-.37-.26-.33-.31-.4-.35-.56.83-.13,1.01-.41.11-.17.02-.93.16-1.21.83.15-.31,1.36.76,1.2h0Z"/>
        <path d="M6.98,27.65c.23.16.42-.46.61-.52.54-.19,1.27.23,1.34.81.08.66-.74,1.7-1.06,2.31-.17.33-.2,1.01-.58.74-.1-.07-.14-.39-.23-.53-.37-.58-1.55-1.87-1.62-2.43-.12-.98.71-1.15,1.41-.64.1.07.1.25.12.26h0Z"/>
        <path d="M7.84,34.74c.19-.12.05-.67.92-.54,1.72.25-.05,2.46-.38,3.1-.09.17-.22.81-.38.82-.29.01-.35-.63-.51-.91-.39-.66-2.13-2.12-1.24-2.91.67-.59,1.41.55,1.58.44Z"/>
        <path d="M10.78,52.87l.44,2.51.39-.98c.54-2.73.95.14,1.57.87,0-.35.25-2.4.1-2.5-.08-.05-.76.07-.75-.17,0-.27,1.19-.14,1.41-.16-.38.9-.25,1.84-.33,2.78-.02.31-.09,1.28-.49,1.25-.37-.22-.77-2.4-.98-2.39-.3.26-.45,2.17-.61,2.27-.1.06-.51.03-.59-.09-.19-.27-.34-2.68-.5-3.2-.09-.29-.74-.55.18-.63,1.11-.1,1.34.45.17.44Z"/>
        <path d="M5.76,52.65c.04.25-.22.3-.29.5-.23.66.07,2.42-.2,3.2-.05.06-.14.19-.21.2-.48.04-.84-1.81-1.03-2.22-.23-.51-.17.02-.2.13-.1.31-.48,2-.56,2.07-.21.16-.44-.05-.52-.25-.26-.65-.33-2.16-.53-2.96-.07-.27-.21-.42-.26-.67.45.06,1.05-.16,1.41.16-.11.2-.74.14-.76.16-.15.15.34,2.09.44,2.4.41-.24.32-1.97.82-1.97s.63,1.85,1.14,2.08c-.09-.31.2-2.42.11-2.51-.03-.03-.91.03-.76-.27.16-.32,1.1-.07,1.41-.05h0Z"/>
        <path d="M8.16,54.18c-.18-.19-.19.06-.23.15-.16.35-.45,2.07-.55,2.13-.07.05-.35.02-.44-.04-.16-.12-.49-2.73-.63-3.19-.1-.32-.3-.4-.35-.69.31.05,1.26-.15,1.41.16.14.29-.58.2-.66.16-.09.09.22,2.3.33,2.4.17.17.19-.04.23-.15.12-.34.3-1.47.41-1.64.53-.77,1.11,1.91,1.26,1.9.1-.15.15-.42.16-.6s.12-1.65.1-1.73c-.07-.26-.54-.17-.76-.18v-.33c.36.09,1.05-.18,1.31.05.17.15-.17.39-.21.66-.08.52-.02,2.98-.33,3.16-.21.13-.31.04-.43-.13-.24-.33-.58-2.03-.67-2.12h0Z"/>
        <path d="M6.33,40.1c.07.06.1,1.78.16,1.86.24.25,1.16-.13,1.47.27.06.22-.48.24-.61.26-.18.02-.78-.01-.81.01-.01.01,0,.41,0,.43.14.15,2.03-.23,1.74.66-.59-.11-1.25.18-1.81.12-.35-.04-.4-.28-.65-.33-.2-.04-1.1.05-1.15,0-.23-.67,1.15-.2,1.29-.45.06-.1,0-.29.02-.42-1.89.17-1.88-.61,0-.44.1-.31-.24-1.84-.11-1.97.01-.01.42-.01.43,0h0Z"/>
        <path d="M16.88,68.8v-2.34c0-.11,1.34-1.43,1.56-1.57.12,0,1.6,1.56,1.6,1.67v2.07s-.15.16-.16.16h-3Z"/>
        <path d="M5.27,23.25c-.78-.8-.83-2.42.12-3.13,1.36-1.01,3.36.33,3.33,1.91-.03,1.93-2.2,2.51-3.46,1.21h0Z"/>
        <path d="M6.38,78.06c-.43,0-1.09-.1-1.26.43-.3.92.17.81.82,1.04-.12.3-.58.15-.66.21-.39.31.55,4.03-1.85,2.9-.05-.45.5-.21.7-.23.98-.07.42-1.94.5-2.61-1.84-.15-.1-.47-.05-.54.12-.19.02-.71.13-.96.29-.63,1.37-1.09,1.66-.25h0Z"/>
        <path d="M13.79,64.79c2.27-.46,3.34,2.52,1.61,3.69s-3.82-.93-2.83-2.72c.16-.29.88-.9,1.21-.96h0Z"/>
        <path d="M9.34,74.32c1.38-.23.04.52,0,1.2-.26.19-.7-.94-.98-1.04-.05-.37.38.02.55-.1.26-.19-.14-1.33,0-1.7-1.42.55-.06-.99.16-.99.34.34,1.66,1.41.27.99v1.64h0Z"/>
        <path class="cls-4" d="M17.11,53.53l-.66-.11c0,.27-.05,1.53.11,1.64.03.02.64-.25.54.16,0,.03-.32.36-.4.48-.16.23-.07.57-.4.44-.1-.04-.79-.9-.83-1.02-.12-.36.56.16.65.05l-.11-1.74c-.18-.08-.42.22-.49.21-.48-.04.47-1.05.66-1.2l.93,1.09h0Z"/>
        <path class="cls-4" d="M2.63,46.75c.51.35.23,2.76.37,2.95.21.29,1.36.02,1.67.19.15.08.23.05.15.3-.05.16-1.88.15-2.18.16,0-.25,0-.51,0-.76-.03-.94.02-1.89,0-2.83h0Z"/>
        <path class="cls-4" d="M11.86,65.96h-3.38s-.03-.25-.11-.33c.1-.14,2.73-.16,3.12-.12.32.04.42.09.38.44h0Z"/>
        <path class="cls-4" d="M7.97,43.91s.01.29,0,.32c-.08.14-2.66.18-2.99.11s-.35-.42-.22-.44c.28-.04,3.12-.12,3.22,0h0Z"/>
        <path d="M4.39,65.96c-.29-.07-.05-.39.23-.44.4-.06,2.07-.04,2.51,0,.34.02.7.02.6.44-.91-.15-2.52.2-3.33,0h0Z"/>
        <path class="cls-4" d="M3.4,67.6c.08.02.22.25.16.33-.1.14-3.39.14-3.49,0-.06-.09.1-.33.16-.33.66,0,2.71-.13,3.16,0Z"/>
        <path d="M8.53,66.94c-.09-.03-.2-.21-.16-.33.66-.05,1.36-.12,2.02-.12.27,0,1.29.02,1.41.1.13.1.05.21.06.34-.85-.15-2.59.21-3.33,0h0Z"/>
        <path d="M3.57,65.96H.08v-.33c.06-.07,1.62,0,1.91,0,.5,0,1.42-.4,1.58.33h0Z"/>
        <path d="M7.55,67.6c.09.03.2.21.16.33-.5-.09-3.22.25-3.49,0-.06-.06.1-.33.16-.33.66,0,2.71-.13,3.16,0Z"/>
        <path class="cls-5" d="M7.72,66.94h-3c-.33,0-.57.16-.49-.33l3.21-.08.29.41h0Z"/>
        <path class="cls-4" d="M11.86,67.61c.03.05-.01.23,0,.32h-3.49l.28-.32c.39,0,3.12-.13,3.21,0Z"/>
        <path class="cls-4" d="M3.4,66.62c.09.03.23.27.16.33-.1.09-2.34-.01-2.68,0-.28,0-1.11.31-.65-.32.81.15,2.46-.2,3.16,0h0Z"/>
        <path d="M2.63,42.93c.27.15,1.7.1,1.75.38.12.66-1.35.29-1.75.38,0,0,0-.76,0-.76Z"/>
        <path class="cls-5" d="M18.11,56.58c.23.23-.61.32-.71.33-.29,0-1.23-.12-.68-.35.2-.09,1.27-.1,1.39.03Z"/>
        <path d="M2.63,42.17c.34.01,1.4-.4,1.31.27l-1.31.16c0-.14.02-.31,0-.44Z"/>
        <path class="cls-12" d="M4.7,42.26c.12.1-.4.64-.61.66-.36.04-.87-.6-.43-.66.32-.05.71.03,1.04,0Z"/>
        <path class="cls-12" d="M7.53,42.26c.22-.05,1.3-.29,1.2.16-.05.22-1.27.35-1.2-.16Z"/>
        <path class="cls-9" d="M4.37,44.55c-.36.08-.54-.81-.27-.87.36-.07.28.69.27.87Z"/>
        <path class="cls-9" d="M3.23,43.35c.2,0,.2.54,0,.54s-.2-.54,0-.54Z"/>
        <path class="cls-9" d="M7.53,43.57c-.07.07-.38-.02-.44-.16-.15-.38.66-.04.44.16Z"/>
        <path class="cls-9" d="M8.91,74.39c.34-.08.39.73.1.87-.49.03-.32-.82-.1-.87Z"/>
        <path class="cls-9" d="M8.96,70.35c.19.13,0,.73-.37.65-.43-.1-.05-.94.37-.65Z"/>
        <path class="cls-9" d="M9.07,73.73c-.2.22-.55-.58-.16-.44.14.05.23.36.16.44Z"/>
        <path class="cls-9" d="M17.1,60.36h.97c.22.86-.3,1.72-1.25,1.64-1.26-.1-2-1.94-.27-1.64.12-.11-.75-.98.16-.99,1.04-.01.25.87.39.99h0Z"/>
        <path class="cls-9" d="M17.21,59.05c-.18.17-1.49-.19-.55-.5.54-.18.7.35.55.5Z"/>
        <path class="cls-6" d="M12.85,59.05s-.55-.03-.67-.04c-.06,0-.31.12-.2-.12.31-.7,1.13-.08.87.16h0Z"/>
        <path d="M5.91,60.85c-.03-.52.85-1.42.16-1.68-.28.15-.2.52-.28.69-.15.35-.49-.27-.61-.35-.86-.57-1.41-.43-2.33-.12.18-1.19,1.72-1.27,2.38-.36.08.11.12.36.12.36.4.3.29-1.03.11-1.16-.15-.11-.39.07-.58.04-.14-.02-.28-.17-.46-.19-.67-.07-1.16-.15-1.63.43-.67.82-.6,2.44-.05,3.3.28.43,1.01.53,1.23.73.1.09.07.24.14.33.08.1.56.21.13.36-.18.06-.35-.03-.52-.03-.3.32.83.66,1.04.45.17-.17.19-.38.17-.61-.02-.22-.35-.13-.23-.43.04-.09,1.15-.64,1.31-.56.11.06.31.62.54.39.2-.2-.63-1.24-.65-1.59ZM4.51,62.08c-1.64.37-2.37-2.23-.71-2.57.74-.15,1.56.39,1.65,1.15.05.41-.46,1.31-.93,1.42Z"/>
        <path class="cls-9" d="M18.46,65.31c.09,0,1.05,1.14,1.12,1.28.15.32.28,1.66-.05,1.76-.26.08-1.93.07-2.15,0-.26-.09-.23-1.4-.15-1.65s1.05-1.05,1.23-1.38h0Z"/>
        <path class="cls-9" d="M5.48,23.04c-1.38-1.5.26-3.72,2.03-2.63,2.27,1.4-.24,4.57-2.03,2.63Z"/>
        <path class="cls-9" d="M12.99,65.67c.83-1,2.74-.73,2.91.67.36,2.91-3.71,2.8-3.18,0,.04-.21.12-.51.26-.68Z"/>
        <path class="cls-4" d="M5.7,22.61c-.15-.18-.25-.49-.25-.73.21.03.21.4.36.51.35.25,1.29.28,1.67.04.27-.18.25-.52.49-.66.13,1.4-1.41,1.89-2.26.84h0Z"/>
        <path d="M7.09,21.54c-.07-.05-.18-.48.05-.53.65-.16.53.89-.05.53Z"/>
        <path d="M6.32,21.55c-.72.18-.66-.7-.16-.54.18.05.18.38.16.54Z"/>
        <path class="cls-4" d="M15.57,66.84c-.19,1.58-2.02,1.59-2.51.16,0-.34.11-.06.2.03.84.81,1.56.55,2.31-.19Z"/>
        <path d="M15.12,65.97c.19.15,0,.58-.26.53-.33-.06-.19-.87.26-.53Z"/>
        <path d="M13.93,65.96v.49c-.35.21-.5-.15-.44-.49h.44Z"/>
      </g>
    </g>
    <g id="Arrow-2" data-name="Arrow">
      <path class="cls-1" d="M283.19,89.36h-.65l.36.86c.25-.17.11-.6.29-.86Z"/>
      <path class="cls-1" d="M283.68,100.11h.79l-.22-.5c-.1-.07-.51.39-.57.5Z"/>
      <path class="cls-1" d="M284.61,94.42c-.05.06-.33.48-.28.52l.64-.07-.22-.5c-.1-.02-.09-.02-.14.05Z"/>
      <path d="M290.31,115.08l-.72.14-.29-1.65-.79.14-.28-1.64,3.64-.76-.29-1.53-.78.06-.15-.78-.7.06-.15-.78-.79.14-.07-.79-.8.04-.14-.76-.79.14-.14-.86-.79.14-.07-.79-.79.14-.14-.86-.72.14-.14-.79-.79.14-.14-.86-.72.14-.14-.79-.79.14-.14-.86-.68.14c-.14-.04-.18-.62-.19-.78l-.79.07-.14-.86c-.37.16-.81.14-1.18.22-.09.02-.14.02-.18.11l3.22,17.64.64-.07s-.17-.28,0-.39l.69-.18-.11-.79.6-.08.11-.1-.14-.81.72-.07-.06-.85.71-.15-.14-.86.79-.14.29,1.64.85-.06.25,1.51c.11.17.59-.04.76-.07.01,0,.03,0,.04,0-.1-.55-.18-1.1-.29-1.64l-.79.14-.29-1.65-.72.14-.33-1.58-.68.08.06.85-.71.19.14.75-.72.14.14.86-.79.07.14.85-.71.15-2.58-14.04.71-.06.15.78.79-.14.14.86.79-.14.07.79.78-.06.15.78.79-.14.07.79.79-.14.14.86.79-.14c.03.8.06.86.85.72l.15.78.79-.14.14.86.79-.14.14.76.72-.11.14.86.79-.14.06.78-3.65.65.29,1.72.71-.14.29,1.64.79-.14.29,1.65.79-.14.11.79-.76.14.14.86c-.25,0-.48.1-.72.14.04.18.02.72.19.78l1.39-.21-.14-.85.64-.07-.43-2.51Z"/>
      <path d="M287.7,117.23c.05.29.1.57.14.86.26-.09.53-.09.79-.14-.06-.29-.15-.56-.14-.86-.25.04-.5.09-.75.14h0s-.04,0-.04,0Z"/>
      <path d="M287.74,117.23h0s-.03,0-.04,0h.04Z"/>
      <path d="M262.18,92.93c.56-.77,1.26-1.75,2.07-2.17.43-.23.2-.32.31-.52.03-.06.97-.76,1.11-.86.8-.58,1.67-1.05,2.58-1.45h.1c-.03.28.04.23.29.18.42-.1.22-.31.35-.43.05-.05.52-.18.64-.22,1.25-.39,2.58-.43,3.87-.39l-.29.72h.45l.41-.68c1.22.08,2.41.39,3.58.76-.08.14-.35.1-.5.19-.22.11-.31.35-.02.44.31.1.75-.1,1.13-.05.45.06,1.18.88,1.34.18-.27-.84-.97-1.48-1.42-2.25h-.27c-.35.12.12.72.14.93-1.15-.41-2.34-.68-3.55-.86h0s.35-.62.35-.62l-.46-.24-.52.79c-1.73-.1-3.38.14-5.04.57l.07-.72-.6.06-.05.93c-3.36,1.23-5.91,3.96-7.65,7.01-2.95,5.2-3.76,12.25-3.17,18.18.07.71.2,1.42.29,2.12l.22-.03.07-.14c-.73-7.11-.11-15.43,4.17-21.4Z"/>
      <path d="M287.42,80.36c.13.31-.06.73.28.76l.03-.22c1.52,2.18,2.53,4.81,2.76,7.45l-.22-.07-.12.47c.51.36.43.64.41,1.22-.05,1.27-.43,2.83-.94,4-.08.17-.45.97-.53,1.05-.09.09-.19,0-.25.04-.46.24-.14.5-.25.74-.07.17-.69.89-.86,1.08-.87.97-1.94,1.71-3.01,2.43.02-.21.05-.77-.32-.61-.05.02-.74.66-.83.75-.13.14-.62.7-.61.83l.11.18h.02s2.12,0,2.12,0l-.22-.79c1.58-.76,2.88-2.01,3.98-3.36l.29.5.46-.25-.28-.58-.25.11c-.16.05.35-.64.38-.69,1.02-1.73,1.62-3.73,1.59-5.75l.35.22c.12-.28.27-.63-.12-.77-.24-.09-.1.13-.24.13-.02-2.72-.93-5.38-2.29-7.71v-.09c.23.02.27-.42.2-.51-.09-.1-.6-.07-.63-.09-.04-.03-.35-.54-.56-.89h-.71c.12.17.22.32.26.42ZM283.68,100.11c.06-.1.47-.57.57-.5l.22.5h-.79Z"/>
      <path d="M274.21,118.32c-.31-.77-.69,0-1.07-.13-.19-.06-1.22-.95-1.43-1.15-3.21-2.91-5.51-6.93-6.24-11.21h.29l.07-.58h-.43c-.26-1.69-.23-3.51.26-5.15.23-.05,1.01.31,1.1.04.1-.33-.8-.33-1-.47h0c.27-1.17.81-2.28,1.51-3.24.19-.27,1.13-1.29,1.13-1.45,0-.67-.68-.18-.93.07-1.12,1.13-1.96,2.81-2.37,4.34l-.43-.14-.04.43.33.19c-.97,4.15.06,8.61,2.15,12.24-.12.16-.33.1-.5.1l.15.56.71-.02c1.94,3.13,4.79,6.04,8.19,7.57.33.14,1.74.76,1.99.6l.03-.19c-1.34-.63-2.79-1.18-3.91-2.15l.43-.26Z"/>
      <path d="M283.1,80.93h0s0,0,0-.02v.02Z"/>
      <path d="M281.43,80.28c.27.25.5.8.54.83.06.05.2-.05.31-.03.5.1,2.2,2.55,2.5,3.09.31.54.97,1.91,1.04,2.48.03.21-.23.41-.19.65h.35c.46,2.23.19,4.5-.72,6.58-.19-.14-.23-.47-.5-.55-.29-.08-.39.61-.52.85-.09.18-.27.44-.39.62-.07.11-.64.61-.14.65.21.02,1.18-.31,1.51-.35.25-.04.56.08.74-.12.02-.09-.37-.3-.34-.64,0-.09.52-1.22.61-1.46.06-.15.24-.36.27-.45.02-.08-.09-.14-.07-.22.1-.59.28-1.16.32-1.75.07-1.04-.03-2.08-.14-3.11l.64.07-.12-.51-.68-.17c-.49-1.68-1.27-3.29-2.37-4.66-.26-.32-.74-.72-.93-1.01-.04-.05-.09-.07-.07-.16h0s0-.01,0-.01c0,0,0,0,0,.01l.35-.11-.13-.43c-.06-.05-.63.15-.79.08-.12-.05-.4-.3-.64-.52h-.87c.15.11.28.22.41.34ZM284.33,94.95s.23-.47.28-.52c.06-.06.05-.07.14-.05l.22.5-.64.07Z"/>
      <path d="M294.85,81.12c.2.93.61,2.74.6,3.63,0,.23-.22.41-.22.57,0,.14.18.22.23.34.1.23.13,1.81.13,2.17-.04,4.23-1.31,8.97-4.09,12.24-.11.13-.8.89-.86.93-.05.02-.06.07-.14.02l-.05-.14c-.62.1-.39.2-.46.61-.04.22-1.54,1.21-1.84,1.38-.31.18-1.97.89-2.02,1.06-.1.35.36.22.53.17,1.13-.32,2.33-1.22,3.29-1.87l.03.22h0c.66-.03.39-.43.57-.75.16-.27.99-.93,1.26-1.25.91-1.04,1.75-2.43,2.34-3.68.23-.47.39-1.09.62-1.53.08-.16.27-.27.32-.4.07-.17-.03-.32-.02-.51.06-.58.42-1.53.55-2.18.36-1.88.66-4.93.39-6.72-.31-1.99-.52-3.7-.95-5.51h-.53c.1.39.22.78.3,1.18Z"/>
      <polygon points="269.35 100.19 269.35 100.19 269.35 100.18 269.35 100.19"/>
      <path d="M269.35,100.19s0,0,0,0h0s0,0,0,0c.22,0,.25.26.47.29.18.02.29,0,.32-.19.03-.18-.28-1.62-.36-1.86-.1-.33-.19-.42-.54-.26-.19.08-1.11,1.05-1.19,1.24-.06.14-.07.27-.06.41.43.1.47-.29.76-.5.02,0,.19.24.21.29.06.19-.06,1.13-.04,1.46.13,2.63,1.38,5.44,2.88,7.57.19.27.96,1.1,1.03,1.27.03.08-.04.18.02.32.18.43.38.21.55.31.42.26,1.15,1.18,1.65,1.58,1.19.96,2.68,1.87,4.19,2.15-.61-.43-1.33-.74-1.97-1.14-4.33-2.71-7.88-7.71-7.92-12.96Z"/>
      <path d="M301.62,90.32l-.25-.02-.1.11c-.04,1.1-.09,2.19-.24,3.28-.72,5.22-3.82,10.99-8.48,13.67-.27.15-1.21.53-1.34.67-.08.09-.09.13-.07.25h0c.15.14,1.53-.51,1.77-.64,5.32-2.78,8.96-10.6,8.85-16.45,0-.12-.1-.83-.14-.86Z"/>
      <path d="M282.84,91.07l.28-.03.49-2.32-.71.07s0,0,0,0h0s0,0,0,0c-.09-3.02-3-5.48-5.57-6.64-1.3-.59-3.9-1.35-5.29-1.15-.28.04-.63.27-.22.35.64.13,1.37.12,2.05.24,3.67.65,8.01,3.34,8.73,7.24l-.71.04c-.14.19.89,1.84.93,2.2ZM283.18,89.36h0c-.18.26-.04.69-.29.86l-.36-.86h.64Z"/>
      <polygon points="282.9 88.8 282.9 88.79 282.89 88.79 282.9 88.8"/>
      <path d="M277.18,107.86c-.31-.23-.62-.47-.92-.73-.06-.14.47-.83.26-1.04l-.29-.08-.36.76c-.98-.8-1.63-1.94-2.37-2.97-.07-.22.47.06.64-.04h0s.05-.12.05-.17c-.02-.17-.64-.84-.79-1.05-.14-.19-.35-.74-.58-.72l-.17.12c.05.36-.34,1.64-.16,1.86.06.09.14.1.25.1.28,0,.19-.23.4-.22,0,.16.06.33.13.47.87,1.74,2.54,3.58,4.27,4.48.19.1.99.54,1.13.35.02-.14-.02-.19-.1-.29-.18-.18-1.07-.61-1.38-.84ZM272.86,103.18l.07-.5s.42.37.35.5h-.43Z"/>
      <path d="M268.94,95.58c.23-.06,1.61-2.02,1.95-2.29.04-.1.07-.34.02-.42h0c-.19-.28-1.39.47-1.67.57-.23.09-.53.18-.76.24-.56.15-1.28-.03-.99.9.6-.19.96-.31,1.12.43.04.19-.12.69.34.56Z"/>
      <path d="M268.52,120.45c.54-.08,1.08-.15,1.61-.29l-.22-.47-.57.04v-.02c.19-.3-.09-.62-.42-.54-.24.06-1.74.88-1.96,1.05-.07.06-.14.11-.16.2l.02.2c.06.13.22.15.33.19.32.1,2.51.77,2.64.74.1-.03.21-.1.22-.23.04-.43-1.26-.64-1.59-.75-.12-.1,0-.12.1-.14Z"/>
      <polygon points="262.33 112.36 262.33 112.36 262.32 112.36 262.33 112.36"/>
      <path d="M262.33,112.36h0s0,0,0,0h.01l.29-.53c-.16-.46-.65-.08-.97-.04-.3.04-.83.07-1.13.07-.16,0-.68-.21-.76.05-.11.35.28.35.45.47.29.19.58.38.86.57.32.23.97.97,1.36.84.43-.14-.28-.72-.31-.93h1.08l.1-.35.18.14-.07-.29h-1.07Z"/>
      <path d="M294.39,99.57c0,.13.52.9.63,1.13.14.34.15,1.13.67.84.06-.44.66-1.46.65-1.83,0-.19-.16-.29-.35-.24-.37.1-.32,1.18-.84.6.64-.1.6-.93.57-1.46h0c-.52.08-.45.57-.5,1-.19-.15-.83-.52-.83-.03Z"/>
      <path d="M277.25,102.41l-1.24-.08c-.23.23,1.01,1.46,1.09,1.77h0c.19.14.44.14.55-.1.06-.27-.37-.47-.41-.72-.06-.31.44-.67,0-.87Z"/>
      <path d="M291.21,115c.16.16,1.92-.55,2.12-.78.08-.1.13-.15.1-.29h0c-.08-.09-2.08.72-2.16.81-.06.09-.08.15-.06.26Z"/>
      <path d="M279.81,81.26l-1.43.64.21.47c.1.06,1.06-.59,1.3-.54l-.07-.57Z"/>
      <path d="M291.88,90.29c.02.07.5.62.59.71.06.06.07.09.17.07l.21-.44-.74-.84c-.12.15-.29.29-.23.5Z"/>
      <polygon points="292.65 91.08 292.64 91.08 292.64 91.08 292.65 91.08"/>
      <path d="M262.61,82.41l.51-.11.14-1.1c-.14,0-.43,0-.51.12l-.14,1.09Z"/>
      <path d="M276.02,83.68l.33.38.73-.61c-.02-.17-.18-.43-.37-.38l-.69.61Z"/>
      <path d="M259.31,95.01c.09.06.43-.27.43-.39l-.54-.82-.32.47.43.76h0Z"/>
      <path d="M289.7,88.5c.3-.64-.29-.82-.79-1.01-.15.71.32.7.79,1.01Z"/>
      <polygon points="258.42 92.48 258.05 91.8 257.67 92.25 258.05 92.87 258.42 92.48"/>
      <path d="M270.34,119.44s.29.47.41.49l.67-.2h0s-.39-.48-.39-.48l-.68.19Z"/>
      <polygon points="289.72 98.5 289.85 99.24 290.35 98.99 290.21 98.24 289.72 98.5"/>
      <path d="M273.35,88.53c0-.15-.22-.25-.35-.25h0c-.07.34-.25.72-.27,1.06,0,.14-.06.2.09.3l.54-1.11Z"/>
      <path d="M263.32,86.49l-.06-.78h0c-.14,0-.44.06-.49.19l.06.74.49-.15Z"/>
      <polygon points="274.18 109.77 274.65 109.24 274.33 108.85 273.86 109.38 274.18 109.77"/>
      <polygon points="290.43 81.98 290.47 81.48 289.77 81.22 289.64 81.69 290.43 81.98"/>
      <path d="M289.77,105.62h-.49c-.44,1.28.35,1.01.49,0Z"/>
      <polygon points="262.61 85.14 263.08 84.99 263.11 84.27 262.61 84.35 262.61 85.14"/>
      <path d="M287.2,93.51l.47.63.39-.31c-.32-.35-.35-.64-.86-.32Z"/>
      <polygon points="275.92 116.52 275.44 116.9 275.83 117.23 276.37 116.83 275.92 116.52"/>
      <polygon points="270.05 111.5 269.42 111.64 269.63 112.18 270.28 111.99 270.05 111.5"/>
      <path d="M269.63,91.44s-.19-.86-.25-.93c-.1-.13-.51-.14-.41.12.05.14.47,1.01.66.81Z"/>
      <path d="M263.97,112.46c.23.47.21.53.79.47l-.08-.56c-.14-.02-.7-.06-.71.1Z"/>
      <polygon points="268.48 88.93 268.63 89.72 269.05 89.56 268.98 88.86 268.48 88.93"/>
      <path d="M285.69,91.8c-.33-.09-.76-.47-.93.03l.68.38.25-.41Z"/>
      <path d="M284.98,80.27l.03.51c.08.12.46.05.61.06l-.08-.56h0s-.56,0-.56,0Z"/>
      <path d="M272.31,118.75l-.53.2c.29.43.45.49.93.28.06-.1-.31-.42-.4-.48Z"/>
      <polygon points="272.71 119.24 272.71 119.23 272.71 119.23 272.71 119.24"/>
      <path d="M263.38,98.54c.04-.23-.5-.56-.56-.52l-.14.45c.03.09.5.38.56.33,0,0,.14-.25.14-.27Z"/>
      <path d="M281.18,81.34h0l-.22-.5-.72.22c-.05.16.04.12.09.16.35.32.37.28.84.12Z"/>
      <polygon points="268.7 83.7 269.33 83.61 269.42 83.2 268.77 83.13 268.7 83.7"/>
      <path d="M266.34,93.59h0l-.61-1c-.1.12-.27.16-.2.33.06.14.68.79.8.67Z"/>
      <polygon points="272.28 110.5 271.78 110.75 272.04 111.21 272.49 110.95 272.28 110.5"/>
      <path d="M292.08,82.79l.52.33c.09-.02.2-.33.15-.43l-.5-.28h0s-.18.38-.18.38Z"/>
      <path d="M290.35,103.25h0c-.14,0-.36-.06-.47.06l-.1.64.47-.14.1-.57Z"/>
      <path d="M277.23,115.32l.39.25c.09-.07.47-.39.4-.49h0s-.39-.21-.39-.21l-.39.45Z"/>
      <polygon points="261.16 96.36 260.78 96.02 260.54 96.48 260.92 96.81 261.16 96.36"/>
      <path d="M284.54,87.11c-.06-.23-.62.12-.72.21-.08.07-.17.13-.14.25h0c.27-.03.97-.02.86-.46Z"/>
      <path d="M265.26,112.36c.13.45.21.57.72.5l-.14-.47-.58-.03Z"/>
      <path d="M279.56,111.99c-.19-.04-.78.91-.1.86,0-.15.37-.8.1-.86Z"/>
      <path d="M293.36,92.01c.18-.35.34-.56-.1-.79-.31.27-.34.68.1.79Z"/>
      <polygon points="274.79 108.38 275.12 108.77 275.43 108.39 275.05 108.06 274.79 108.38"/>
      <polygon points="258.94 93.39 258.7 93.02 258.33 93.41 258.55 93.8 258.94 93.39"/>
      <path d="M263.86,88.86l-.38.26.13.46c.43-.1.56-.38.25-.72Z"/>
      <polygon points="263.1 83.55 263.11 82.99 262.62 83.14 262.61 83.63 263.1 83.55"/>
      <polygon points="264.25 99 263.75 98.67 263.61 99.16 264.11 99.39 264.25 99"/>
      <path d="M262.03,97.31c-.12.3-.31.67.17.71.39-.34.26-.52-.17-.71Z"/>
      <path d="M263.46,80.05c-.48-.02-.58,0-.64.47l.14.08.43-.05.07-.5Z"/>
      <polygon points="264.47 91.33 264.69 91.79 265.11 91.65 264.79 91.08 264.47 91.33"/>
      <polygon points="265.54 92.27 265.26 91.79 264.9 92.04 265.3 92.58 265.54 92.27"/>
      <path d="M291.43,82.41l.06-.49h0l-.43-.15c-.19.42-.14.6.35.64Z"/>
      <path d="M263.72,88.35l-.04-.43h0s-.47.21-.47.21l.04.43c.19.02.32-.12.47-.22Z"/>
      <polygon points="286.42 80.89 286.84 80.91 286.75 80.42 286.34 80.33 286.42 80.89"/>
      <path d="M271.07,111.1l-.36.14.22.46.35-.07h0c.06-.08-.14-.43-.21-.53Z"/>
      <path d="M279.02,113.79l.14-.49h0l-.35-.15-.2.39c0,.08.35.3.42.25Z"/>
      <polygon points="269.77 81.84 269.14 81.85 269.06 82.2 269.77 82.13 269.77 81.84"/>
      <polygon points="290.47 100.11 290.42 99.75 289.95 99.89 289.99 100.32 290.47 100.11"/>
      <path d="M294.71,84.15h0l-.24-.15-.22.35c.22.52.49.21.46-.2Z"/>
      <path d="M277.06,116.07l-.36-.27-.25.24c.14.22.67.43.61.03Z"/>
      <path d="M275.01,84.77h0l.46.21.19-.19c.02-.1-.21-.31-.31-.31l-.32.29Z"/>
      <path d="M294.15,93.73c.13.1.64-.47.25-.64-.18.1-.46.49-.25.64Z"/>
      <path d="M257.3,91.58l.49-.23-.06-.35c-.11-.09-.55.39-.43.57Z"/>
      <polygon points="275.93 107.66 275.54 107.34 275.37 107.69 275.76 107.91 275.93 107.66"/>
      <path d="M284.32,80.81v-.54l-.34.1c.06.22.03.6.34.43Z"/>
      <polygon points="288.16 87.21 287.91 87.14 287.95 87.64 288.2 87.71 288.16 87.21"/>
      <path d="M263.45,87.41l-.02-.35c-.1.1-.51.22-.47.39.05.19.49-.05.49-.05Z"/>
      <path d="M268.42,111.95c.16.18.1.53.43.47l-.14-.57-.28.1Z"/>
      <path d="M275.15,117.77c-.11-.1-.4-.52-.57-.32-.07.09.4.65.57.32Z"/>
      <path d="M295.33,95.52l-.36.29.04.28c.19-.16.63-.31.32-.57Z"/>
      <polygon points="290.06 104.69 289.57 104.7 289.49 104.98 289.98 104.97 290.06 104.69"/>
      <path d="M293.73,83.45c0-.12-.09-.2-.22-.18-.36.62.27.72.22.18Z"/>
      <path d="M272.94,102.68l-.07.5h.43c.06-.14-.32-.54-.35-.5Z"/>
    </g>
    <g id="Traces">
      <path class="cls-2" d="M192.62,15.4l-11.34,11.34"/>
      <path class="cls-2" d="M181.28,26.74h-82.32"/>
      <path class="cls-2" d="M98.96,26.74l-13.41-13.41"/>
      <path class="cls-2" d="M203.73,15.4h-11.11"/>
      <path class="cls-2" d="M206.79,18.46l-3.06-3.06"/>
      <path class="cls-2" d="M121.1,6.13l-1.47,1.47"/>
      <path class="cls-2" d="M126,6.13h-4.9"/>
      <path class="cls-2" d="M126,13.33l.77-.77"/>
      <path class="cls-2" d="M212.38,12.57l5.9,5.9"/>
      <path class="cls-2" d="M209.35,12.57h3.03"/>
      <path class="cls-2" d="M198.01,12.57h6.19"/>
      <path class="cls-2" d="M182.53,12.57h10.21"/>
      <path class="cls-2" d="M171.34,14.57h5.63"/>
      <path class="cls-2" d="M159.86,14.57h5.91"/>
      <path class="cls-2" d="M148.6,14.57h5.77"/>
      <path class="cls-2" d="M126.84,12.57h10.01l.04,1.39,4.72-.07,1.3-1.32"/>
      <path class="cls-2" d="M114.66,9.73l-3.6,3.6"/>
      <path class="cls-2" d="M118.21.52l-3.54,3.54"/>
      <path class="cls-2" d="M111.06,13.33h-5.29"/>
      <path class="cls-2" d="M114.66,4.06v5.67"/>
      <path class="cls-2" d="M229.75,18.46l-8.88-8.88"/>
      <path class="cls-2" d="M142.97,8.32h-2.79"/>
      <path class="cls-2" d="M154.37,8.32h-5.14"/>
      <path class="cls-2" d="M165.78,8.32h-5.63"/>
      <path class="cls-2" d="M177.04,8.32h-5.7"/>
      <path class="cls-2" d="M192.88,8.32h-10.28"/>
      <path class="cls-2" d="M204.21,8.32h-6.12"/>
      <path class="cls-2" d="M215.61,8.32h-6.26"/>
      <path class="cls-2" d="M132.38.52h-14.17"/>
      <path class="cls-2" d="M140.18,8.32l-7.8-7.8"/>
      <path class="cls-2" d="M184.23,29.58l11.23-11.23"/>
      <path class="cls-2" d="M60.81,29.58h123.42"/>
      <path class="cls-2" d="M42.38,11.15l18.43,18.43"/>
      <path class="cls-2" d="M42.38,5.48v5.67"/>
      <path class="cls-2" d="M215.29,50.84l24.8,24.8"/>
      <path class="cls-2" d="M292.54,75.64l2.83-2.83"/>
      <path class="cls-2" d="M240.1,75.64h52.44"/>
      <path class="cls-2" d="M295.37,8.69l3.54-3.54"/>
      <path class="cls-2" d="M295.37,72.81V8.69"/>
      <path class="cls-2" d="M185.56,50.84h29.74"/>
      <path class="cls-2" d="M93.4,50.84h22.11"/>
      <path class="cls-2" d="M77.81,35.25l15.59,15.59"/>
      <path class="cls-2" d="M242.22,15.4l4.14,4.14"/>
      <path class="cls-2" d="M195.45,3.95l3.57-3.57"/>
      <path class="cls-2" d="M246.36,19.54h6.8"/>
      <path class="cls-2" d="M233.72.38l8.5,8.5"/>
      <path class="cls-2" d="M255.72,19.54h-7.94"/>
      <path class="cls-2" d="M199.02.38h34.7"/>
      <path class="cls-2" d="M242.22,8.89v6.52"/>
      <path class="cls-2" d="M35.82,29.58h21.09"/>
      <path class="cls-2" d="M35.46,29.93l.35-.35"/>
      <path class="cls-2" d="M59.75,32.41h125.78"/>
      <path class="cls-2" d="M185.53,32.41l5.67-5.67"/>
      <path class="cls-2" d="M16.87,29.58h18.24"/>
      <path class="cls-2" d="M56.91,29.58l2.83,2.83"/>
      <path class="cls-2" d="M191.2,26.74h61.97"/>
      <path class="cls-2" d="M233.72,78.33h63.21"/>
      <path class="cls-2" d="M121.9,65.01h100.48"/>
      <path class="cls-2" d="M222.38,65.01l4.37,4.37"/>
      <path class="cls-2" d="M304.81,41.14h-3.34"/>
      <path class="cls-2" d="M113.34,73.57l8.56-8.56"/>
      <path class="cls-2" d="M307.42,67.84v-24.09"/>
      <path class="cls-2" d="M296.93,78.33l10.49-10.49"/>
      <path class="cls-2" d="M226.75,69.38v5.33"/>
      <path class="cls-2" d="M307.42,43.75l-2.61-2.61"/>
    </g>
    <g>
      <polygon points="250.39 97.61 250.88 98.13 251.29 97.74 250.81 97.23 250.39 97.61"/>
      <path d="M257.49,90.54l.5.5c.39-.38.78-.76,1.16-1.13l-.49-.51c-.39.37-.78.76-1.17,1.14Z"/>
      <rect x="253.92" y="93.8" width=".98" height=".71" transform="translate(8.94 209.63) rotate(-45.5)"/>
      <polygon points="255.42 92.63 255.92 93.12 256.84 92.19 256.33 91.7 255.42 92.63"/>
      <path d="M251.75,96.33l.49.51c.39-.38.78-.76,1.16-1.15l-.5-.5c-.38.39-.77.77-1.16,1.14Z"/>
      <path d="M261.1,87.2l.46.54c.42-.35.84-.69,1.26-1.01l-.43-.56c-.43.33-.86.67-1.29,1.03Z"/>
      <path d="M259.14,88.94l.48.52c.32-.3.64-.59.96-.88l-.47-.53c-.32.29-.65.58-.97.89Z"/>
      <path d="M265.45,84.18l.33.63c.38-.2.76-.39,1.15-.55l-.28-.65c-.4.17-.81.36-1.2.58Z"/>
      <path d="M263.46,85.39l.4.58c.27-.18.54-.36.81-.53l-.38-.6c-.28.17-.56.35-.83.54Z"/>
      <path d="M267.91,83.14l.21.68c.51-.16,1.03-.28,1.54-.36l-.11-.7c-.54.08-1.09.21-1.64.39Z"/>
      <path d="M270.56,82.65l.04.71c.18-.01.36-.02.54-.02v-.71c-.2,0-.39,0-.59.02Z"/>
      <path d="M271.15,83.34c.42,0,.78,0,1.11.03l.04-.71c-.34-.02-.72-.03-1.15-.03v.71Z"/>
      <polygon points="275.94 83.71 275.62 84.34 275.91 84.49 276.24 83.86 275.94 83.71"/>
      <path d="M273.34,83.48c.45.08.85.19,1.28.38l.27-.65c-.49-.2-.93-.33-1.43-.42l-.12.7Z"/>
      <path d="M239.17,103.46c-5.65,0-10.78-5.24-15.73-10.31-5.06-5.17-10.29-10.52-16.24-10.52s-11.18,5.35-16.24,10.52c-4.96,5.07-10.08,10.31-15.73,10.31s-10.78-5.24-15.74-10.31c-5.06-5.17-10.29-10.52-16.24-10.52-5.95,0-11.18,5.35-16.24,10.52-4.96,5.07-10.08,10.31-15.73,10.31s-10.78-5.24-15.73-10.31c-5.06-5.17-10.29-10.52-16.24-10.52-5.95,0-11.18,5.35-16.24,10.52-4.96,5.07-10.08,10.31-15.73,10.31s-10.78-5.24-15.73-10.31c-5.06-5.17-10.29-10.52-16.24-10.52-4.75,0-9.04,3.41-13.15,7.41v.99c4.16-4.11,8.48-7.7,13.15-7.7,5.65,0,10.78,5.24,15.74,10.31,5.06,5.17,10.29,10.52,16.24,10.52s11.18-5.35,16.24-10.52c4.96-5.07,10.08-10.31,15.73-10.31,5.65,0,10.78,5.24,15.74,10.31,5.06,5.17,10.29,10.52,16.24,10.52s11.18-5.35,16.24-10.52c4.96-5.07,10.08-10.31,15.73-10.31,5.65,0,10.78,5.24,15.73,10.31,5.06,5.17,10.29,10.52,16.24,10.52s11.18-5.35,16.24-10.52c4.96-5.07,10.08-10.31,15.73-10.31s10.78,5.24,15.74,10.31c5.06,5.17,10.29,10.52,16.24,10.52,4.57,0,8.66-3.23,11.71-6.04l-.48-.52c-2.95,2.72-6.9,5.85-11.22,5.85Z"/>
    </g>
    <path d="M214.83,79.63c-7.06-.06-11.87,7.7-15.91,12.61-2.83,3.67-5.52,7.49-8.92,10.6-1.69,1.54-3.62,2.9-5.81,3.42-9.47,2.32-18.27-16.27-24.72-22.04-18.44-19.23-27.17,25.79-43.11,21.79-4.34-1.45-7.39-5.33-10.22-8.78-4.38-5.37-8.02-11.62-13.7-15.84-7.1-5.36-13.62.56-18.1,6.17-4.45,5.33-8.01,11.41-13.3,15.93-6.53,5.77-12.34,1.53-17.04-4.07-4.55-5.23-8.19-11.34-13.29-16.14-12.09-11.29-20.05,4.73-28.61,15.24v1.04c.75-.89,1.47-1.8,2.2-2.7,2.87-3.66,5.52-7.48,8.62-10.89,5.36-6.05,10.87-8.3,17.25-2.1,5.05,4.79,8.61,10.84,13.18,16.12,3.57,4.36,9.42,9.42,15.3,6.19,7.23-4.07,11.21-11.91,16.47-17.98,4.13-5.14,10.18-11.08,16.8-6.03,5.58,4.13,9.18,10.28,13.56,15.61,2.96,3.58,6.06,7.5,10.67,9.03,16.73,4.33,25.09-40.81,42.88-22.12,6.58,6.48,10.66,15.52,18.46,20.79,10.9,7.02,19.99-11.88,26.13-18.41,2.92-3.31,6.45-7.26,11.22-7.14,9.6.92,16.88,17.64,24.45,23.62-7.64-6.15-14.63-22.9-24.44-23.93Z"/>
    <g>
      <path d="M320.77.8l1.11,1.02v2.1l-1.11,1.02-1.11-1.02V1.82l1.11-1.02ZM320.97,3.74v-.35c0-.08.01-.16.04-.21.02-.06.09-.13.18-.22l.18-.18c.13-.13.22-.24.27-.33.05-.09.07-.19.07-.29,0-.22-.08-.4-.23-.53-.15-.13-.36-.2-.62-.2-.14,0-.28.02-.41.06s-.26.1-.39.18v.39c.14-.09.27-.17.39-.21s.24-.07.35-.07c.15,0,.27.04.36.11s.14.18.14.3c0,.07-.02.13-.05.19s-.09.13-.18.21l-.19.18c-.12.12-.2.22-.24.31-.04.1-.06.21-.06.35v.32h.39ZM320.56,4.04v.53h.42v-.53h-.42Z"/>
      <path d="M323.33.8l1.11,1.02v2.1l-1.11,1.02-1.11-1.02V1.82l1.11-1.02ZM323.53,3.74v-.35c0-.08.01-.16.04-.21.02-.06.09-.13.18-.22l.18-.18c.13-.13.22-.24.27-.33.05-.09.07-.19.07-.29,0-.22-.08-.4-.23-.53-.15-.13-.36-.2-.62-.2-.14,0-.28.02-.41.06s-.26.1-.39.18v.39c.14-.09.27-.17.39-.21s.24-.07.35-.07c.15,0,.27.04.36.11s.14.18.14.3c0,.07-.02.13-.05.19s-.09.13-.18.21l-.19.18c-.12.12-.2.22-.24.31-.04.1-.06.21-.06.35v.32h.39ZM323.12,4.04v.53h.42v-.53h-.42Z"/>
      <path d="M318.37,10.3h-.21v-.62c-.14,0-.28-.03-.42-.06s-.28-.08-.41-.13v-.37c.14.09.28.15.42.2.14.05.28.07.42.07v-.95c-.28-.04-.49-.13-.62-.25-.14-.13-.21-.29-.21-.5s.07-.39.22-.52c.15-.13.35-.2.62-.22v-.49h.21v.49c.11,0,.22.02.33.04.11.02.23.05.34.09v.36c-.12-.06-.23-.11-.34-.14-.11-.03-.22-.05-.33-.06v.9c.29.04.5.13.65.27s.22.31.22.52-.08.39-.24.53-.37.22-.63.23v.63ZM318.16,8.08v-.86c-.14,0-.26.05-.34.12s-.12.18-.12.31c0,.12.04.21.11.28.08.07.19.12.35.14ZM318.37,8.47v.9c.15,0,.27-.05.36-.13.09-.08.13-.19.13-.33,0-.13-.04-.23-.12-.3-.08-.07-.2-.12-.37-.15Z"/>
      <path d="M319.79,6.95h.24l.3,1.02.3-1.02h.28l.3,1.02.3-1.02h.24l-.38,1.3h-.28l-.32-1.07-.32,1.07h-.28l-.38-1.3ZM319.79,8.43h.24l.3,1.02.3-1.02h.28l.3,1.02.3-1.02h.24l-.38,1.3h-.28l-.32-1.07-.32,1.07h-.28l-.38-1.3Z"/>
      <path d="M323.33,5.9l1.11,1.02v2.1l-1.11,1.02-1.11-1.02v-2.1l1.11-1.02ZM323.53,8.84v-.35c0-.08.01-.16.04-.21.02-.06.09-.13.18-.22l.18-.18c.13-.13.22-.24.27-.33.05-.09.07-.19.07-.29,0-.22-.08-.4-.23-.53-.15-.13-.36-.2-.62-.2-.14,0-.28.02-.41.06s-.26.1-.39.18v.39c.14-.09.27-.17.39-.21s.24-.07.35-.07c.15,0,.27.04.36.11s.14.18.14.3c0,.07-.02.13-.05.19s-.09.13-.18.21l-.19.18c-.12.12-.2.22-.24.31-.04.1-.06.21-.06.35v.32h.39ZM323.12,9.15v.53h.42v-.53h-.42Z"/>
      <path d="M314.41,11.69h.57l1.21,2.54v-2.54h.45v3.09h-.57l-1.21-2.54v2.54h-.45v-3.09Z"/>
      <path d="M318.21,11.01l1.11,1.02v2.1l-1.11,1.02-1.11-1.02v-2.1l1.11-1.02ZM318.41,13.94v-.35c0-.08.01-.16.04-.21.02-.06.09-.13.18-.22l.18-.18c.13-.13.22-.24.27-.33.05-.09.07-.19.07-.29,0-.22-.08-.4-.23-.53-.15-.13-.36-.2-.62-.2-.14,0-.28.02-.41.06s-.26.1-.39.18v.39c.14-.09.27-.17.39-.21s.24-.07.35-.07c.15,0,.27.04.36.11s.14.18.14.3c0,.07-.02.13-.05.19s-.09.13-.18.21l-.19.18c-.12.12-.2.22-.24.31-.04.1-.06.21-.06.35v.32h.39ZM318,14.25v.53h.42v-.53h-.42Z"/>
      <path d="M320.77,11.01l1.11,1.02v2.1l-1.11,1.02-1.11-1.02v-2.1l1.11-1.02ZM320.97,13.94v-.35c0-.08.01-.16.04-.21.02-.06.09-.13.18-.22l.18-.18c.13-.13.22-.24.27-.33.05-.09.07-.19.07-.29,0-.22-.08-.4-.23-.53-.15-.13-.36-.2-.62-.2-.14,0-.28.02-.41.06s-.26.1-.39.18v.39c.14-.09.27-.17.39-.21s.24-.07.35-.07c.15,0,.27.04.36.11s.14.18.14.3c0,.07-.02.13-.05.19s-.09.13-.18.21l-.19.18c-.12.12-.2.22-.24.31-.04.1-.06.21-.06.35v.32h.39ZM320.56,14.25v.53h.42v-.53h-.42Z"/>
      <path d="M323.33,11.01l1.11,1.02v2.1l-1.11,1.02-1.11-1.02v-2.1l1.11-1.02ZM323.53,13.94v-.35c0-.08.01-.16.04-.21.02-.06.09-.13.18-.22l.18-.18c.13-.13.22-.24.27-.33.05-.09.07-.19.07-.29,0-.22-.08-.4-.23-.53-.15-.13-.36-.2-.62-.2-.14,0-.28.02-.41.06s-.26.1-.39.18v.39c.14-.09.27-.17.39-.21s.24-.07.35-.07c.15,0,.27.04.36.11s.14.18.14.3c0,.07-.02.13-.05.19s-.09.13-.18.21l-.19.18c-.12.12-.2.22-.24.31-.04.1-.06.21-.06.35v.32h.39ZM323.12,14.25v.53h.42v-.53h-.42Z"/>
      <path d="M318.21,16.11l1.11,1.02v2.1l-1.11,1.02-1.11-1.02v-2.1l1.11-1.02ZM318.41,19.05v-.35c0-.08.01-.16.04-.21.02-.06.09-.13.18-.22l.18-.18c.13-.13.22-.24.27-.33.05-.09.07-.19.07-.29,0-.22-.08-.4-.23-.53-.15-.13-.36-.2-.62-.2-.14,0-.28.02-.41.06s-.26.1-.39.18v.39c.14-.09.27-.17.39-.21s.24-.07.35-.07c.15,0,.27.04.36.11s.14.18.14.3c0,.07-.02.13-.05.19s-.09.13-.18.21l-.19.18c-.12.12-.2.22-.24.31-.04.1-.06.21-.06.35v.32h.39ZM318,19.35v.53h.42v-.53h-.42Z"/>
      <path d="M319.78,16.78h.42v1.38l1.31-1.38h.49l-1.21,1.27,1.24,1.83h-.51l-1.01-1.55-.32.34v1.21h-.42v-3.1Z"/>
      <path d="M323.33,16.11l1.11,1.02v2.1l-1.11,1.02-1.11-1.02v-2.1l1.11-1.02ZM323.53,19.05v-.35c0-.08.01-.16.04-.21.02-.06.09-.13.18-.22l.18-.18c.13-.13.22-.24.27-.33.05-.09.07-.19.07-.29,0-.22-.08-.4-.23-.53-.15-.13-.36-.2-.62-.2-.14,0-.28.02-.41.06s-.26.1-.39.18v.39c.14-.09.27-.17.39-.21s.24-.07.35-.07c.15,0,.27.04.36.11s.14.18.14.3c0,.07-.02.13-.05.19s-.09.13-.18.21l-.19.18c-.12.12-.2.22-.24.31-.04.1-.06.21-.06.35v.32h.39ZM323.12,19.35v.53h.42v-.53h-.42Z"/>
      <path d="M318.65,21.21l1.11,1.02v2.1l-1.11,1.02-1.11-1.02v-2.1l1.11-1.02ZM318.84,24.15v-.35c0-.08.01-.16.04-.21.02-.06.09-.13.18-.22l.18-.18c.13-.13.22-.24.27-.33.05-.09.07-.19.07-.29,0-.22-.08-.4-.23-.53-.15-.13-.36-.2-.62-.2-.14,0-.28.02-.41.06s-.26.1-.39.18v.39c.14-.09.27-.17.39-.21s.24-.07.35-.07c.15,0,.27.04.36.11s.14.18.14.3c0,.07-.02.13-.05.19s-.09.13-.18.21l-.19.18c-.12.12-.2.22-.24.31-.04.1-.06.21-.06.35v.32h.39ZM318.44,24.45v.53h.42v-.53h-.42Z"/>
      <path d="M321.21,21.21l1.11,1.02v2.1l-1.11,1.02-1.11-1.02v-2.1l1.11-1.02ZM321.4,24.15v-.35c0-.08.01-.16.04-.21.02-.06.09-.13.18-.22l.18-.18c.13-.13.22-.24.27-.33.05-.09.07-.19.07-.29,0-.22-.08-.4-.23-.53-.15-.13-.36-.2-.62-.2-.14,0-.28.02-.41.06s-.26.1-.39.18v.39c.14-.09.27-.17.39-.21s.24-.07.35-.07c.15,0,.27.04.36.11s.14.18.14.3c0,.07-.02.13-.05.19s-.09.13-.18.21l-.19.18c-.12.12-.2.22-.24.31-.04.1-.06.21-.06.35v.32h.39ZM321,24.45v.53h.42v-.53h-.42Z"/>
      <path d="M322.49,22h2.13v2.98h-2.13v-2.98ZM322.7,24.58l.72-1.09-.72-1.09v2.17ZM324.28,22.21h-1.45l.72,1.09.72-1.09ZM324.28,24.77l-.72-1.09-.72,1.09h1.45ZM324.4,24.58v-2.17l-.72,1.09.72,1.09Z"/>
      <path d="M319.14,26.85v.32h-.43c-.14,0-.23.03-.29.08-.05.06-.08.16-.08.3v.21h.8v.3h-.8v2.03h-.38v-2.03h-.62v-.3h.62v-.16c0-.25.06-.44.18-.56.12-.12.3-.18.55-.18h.46Z"/>
      <path d="M320.52,26.98h.51l.95,3.1h-.43l-.23-.81h-1.08l-.22.81h-.43l.95-3.1ZM320.77,27.35l-.44,1.59h.88l-.44-1.59Z"/>
      <path d="M322.84,28.05c.06-.11.15-.2.25-.26s.23-.09.37-.09c.28,0,.5.11.66.32.16.22.24.51.24.89s-.08.68-.24.9c-.16.22-.38.33-.66.33-.14,0-.26-.03-.37-.09-.11-.06-.19-.15-.25-.26v.29h-.38v-3.23h.38v1.2ZM323.96,28.92c0-.3-.05-.52-.14-.67s-.23-.23-.42-.23-.33.08-.42.23c-.1.15-.14.37-.14.67s.05.52.14.67.24.23.42.23.32-.08.42-.23.14-.37.14-.67Z"/>
      <path d="M318.43,34.34c0,.17.03.3.09.39.06.09.16.13.28.13h.45v.32h-.48c-.23,0-.41-.07-.53-.22-.12-.15-.19-.35-.19-.62v-2.1h-.61v-.3h1v2.4Z"/>
      <path d="M320.77,31.42l1.11,1.02v2.1l-1.11,1.02-1.11-1.02v-2.1l1.11-1.02ZM320.97,34.35v-.35c0-.08.01-.16.04-.21.02-.06.09-.13.18-.22l.18-.18c.13-.13.22-.24.27-.33.05-.09.07-.19.07-.29,0-.22-.08-.4-.23-.53-.15-.13-.36-.2-.62-.2-.14,0-.28.02-.41.06s-.26.1-.39.18v.39c.14-.09.27-.17.39-.21s.24-.07.35-.07c.15,0,.27.04.36.11s.14.18.14.3c0,.07-.02.13-.05.19s-.09.13-.18.21l-.19.18c-.12.12-.2.22-.24.31-.04.1-.06.21-.06.35v.32h.39ZM320.56,34.66v.53h.42v-.53h-.42Z"/>
      <path d="M323.33,31.42l1.11,1.02v2.1l-1.11,1.02-1.11-1.02v-2.1l1.11-1.02ZM323.53,34.35v-.35c0-.08.01-.16.04-.21.02-.06.09-.13.18-.22l.18-.18c.13-.13.22-.24.27-.33.05-.09.07-.19.07-.29,0-.22-.08-.4-.23-.53-.15-.13-.36-.2-.62-.2-.14,0-.28.02-.41.06s-.26.1-.39.18v.39c.14-.09.27-.17.39-.21s.24-.07.35-.07c.15,0,.27.04.36.11s.14.18.14.3c0,.07-.02.13-.05.19s-.09.13-.18.21l-.19.18c-.12.12-.2.22-.24.31-.04.1-.06.21-.06.35v.32h.39ZM323.12,34.66v.53h.42v-.53h-.42Z"/>
      <path d="M321.69,38.96v1.33h-.38v-.34c-.08.14-.18.24-.31.31-.12.07-.27.1-.45.1-.24,0-.43-.07-.57-.2-.14-.13-.21-.31-.21-.54,0-.26.09-.46.26-.59.17-.13.43-.2.76-.2h.51v-.06c0-.19-.05-.32-.14-.4-.09-.08-.24-.13-.44-.13-.13,0-.26.02-.39.06-.13.04-.26.09-.39.16v-.38c.14-.05.28-.09.41-.12.13-.03.25-.04.38-.04.19,0,.36.03.49.08.14.06.25.14.33.26.05.07.09.15.11.26.02.1.03.25.03.46ZM320.95,39.12h-.13c-.22,0-.39.04-.5.12-.11.08-.17.19-.17.35,0,.14.04.25.13.33.08.08.2.12.35.12.21,0,.38-.07.5-.22s.18-.35.18-.61v-.08h-.36Z"/>
      <path d="M322.84,38.26c.06-.11.15-.2.25-.26s.23-.09.37-.09c.28,0,.5.11.66.32.16.22.24.51.24.89s-.08.68-.24.9c-.16.22-.38.33-.66.33-.14,0-.26-.03-.37-.09-.11-.06-.19-.15-.25-.26v.29h-.38v-3.23h.38v1.2ZM323.96,39.13c0-.3-.05-.52-.14-.67s-.23-.23-.42-.23-.33.08-.42.23c-.1.15-.14.37-.14.67s.05.52.14.67.24.23.42.23.32-.08.42-.23.14-.37.14-.67Z"/>
      <path d="M318.45,43.76l.27.18c-.12.27-.24.46-.35.56s-.23.15-.36.15c-.19-.01-.37-.11-.52-.3-.16-.19-.27-.33-.33-.4s-.15-.12-.25-.12c-.11,0-.19.05-.24.15-.06.1-.11.23-.17.38l-.28-.16c.08-.26.18-.45.31-.57.13-.12.25-.18.38-.18.23,0,.44.14.63.42.18.28.34.42.47.42.11,0,.2-.06.27-.18s.12-.23.17-.34Z"/>
      <path d="M320.7,45.08c.34-.02.7-.05,1.03-.05-.07-.21-.23-.34-.55-.34-.21,0-.43.01-.65.03-.22.01-.45.03-.7.03-.16,0-.3-.02-.38-.07-.08-.05-.13-.12-.13-.21,0-.06.02-.15.06-.24.06-.15.19-.31.34-.43.19-.16.38-.28.5-.28.05,0,.09.02.09.11,0,.05-.03.12-.07.2h-.01s-.05-.02-.08-.02c-.07,0-.25.09-.42.22-.14.11-.25.22-.25.29,0,.11.21.17.41.17.31,0,.57-.02.79-.03.19-.01.35-.02.48-.02.32,0,.51.09.65.27.05.08.08.15.08.23,0,.04,0,.08-.01.11l-.07.21c-.55.02-1.39.13-2.13.13-.15,0-.32,0-.47-.03l-.31-.27v-.03c.18.05.57.07.74.07.33,0,.66-.02,1.06-.05Z"/>
      <path d="M322.35,42.67h.24l.3,1.02.3-1.02h.28l.3,1.02.3-1.02h.24l-.38,1.3h-.28l-.32-1.07-.32,1.07h-.28l-.38-1.3ZM322.35,44.15h.24l.3,1.02.3-1.02h.28l.3,1.02.3-1.02h.24l-.38,1.3h-.28l-.32-1.07-.32,1.07h-.28l-.38-1.3Z"/>
      <path d="M323.33,46.72l1.11,1.02v2.1l-1.11,1.02-1.11-1.02v-2.1l1.11-1.02ZM323.53,49.66v-.35c0-.08.01-.16.04-.21.02-.06.09-.13.18-.22l.18-.18c.13-.13.22-.24.27-.33.05-.09.07-.19.07-.29,0-.22-.08-.4-.23-.53-.15-.13-.36-.2-.62-.2-.14,0-.28.02-.41.06s-.26.1-.39.18v.39c.14-.09.27-.17.39-.21s.24-.07.35-.07c.15,0,.27.04.36.11s.14.18.14.3c0,.07-.02.13-.05.19s-.09.13-.18.21l-.19.18c-.12.12-.2.22-.24.31-.04.1-.06.21-.06.35v.32h.39ZM323.12,49.97v.53h.42v-.53h-.42Z"/>
    </g>
    <path class="cls-9" d="M104.58,107.61s.09-.41.13-.43c.11-.07,1.69-.03,1.94.01.31.05.35.09.31.42h-2.38Z"/>
    <g>
      <path d="M325.4,109.91c.05.08.54.1.73.24.46.35.51,1.28-.07,1.54-.46.2-.94-.24-.91.62.06.06.7-.03.57.34-.83.06-1.55.1-2.38,0-.09-.43.85-.2.68-.73-.1-.34-1.33.15-1.47-.92-.15-1.15.92-.86,1.02-.96.08-.08-.14-1.74,1.13-1.3.78.27.54.93.7,1.17h0Z"/>
      <path d="M325.5,116.84c2.05,0,1.15,2.86-.57,1.36-.02.24-.02.41.1.63.24.4.81.27,1.03.61-.47.01-1.06.12-1.52.12-.35,0-.94.12-1.08-.23.31.09,1.26-.64,1.02-.91-.06-.07-.41.22-.62.24-1.47.14-1.48-2.02-.06-1.71-.4-1.83,2.02-1.68,1.7-.11h0Z"/>
      <path d="M317.51,97.94c-.28-.27.41-.46.46-.53.06-.1.02-.35.14-.46.1-.09.91-.29,1.09-.3.79-.03.94.36,1.39.78.09.08.33.09.39.17.33.43-.52.33-.51.74,0,.25.78,0,.56.51-.19.06-1.42.07-1.47.12-.01.01-.02.43,0,.44.07.07,1.58-.17,1.58.28,0,.28-1.24.14-1.47.17-.02.26.26.33.24.62-.04.58-1.46.26-1.02-.32.12-.16.34-.12.34-.3h-1.59c-.28-.83,1.61-.11,1.59-.52-.03-.92-1.77.17-1.71-.84h2.1c.18,0,.43-.4.51-.57-.35-.07-2.52.09-2.61,0h0Z"/>
      <path d="M323.29,99.97c-.2-.3-1.4-.04-1.48-.11.02-.11-.03-.43,0-.45.05-.05,1.25.04,1.48,0v-.57c-.09-.08-1.66.29-1.59-.34h1.99c.08,0,.62-.46.62-.51,0-.28-.26-.06-.28-.06h-2.33s-.11-.27-.11-.28c0-.19.51-.14.55-.18.05-.05-.04-.36.17-.56.39-.35,1.42-.37,1.87-.16.26.12.35.44.52.61.1.1.75.28.43.46-.24.14-.5.11-.49.57.24-.06.81.2.57.45-.16.17-1.75-.4-1.48.57.06.06,1.84-.16,1.48.34-.06.08-1.38.08-1.59.11.02.31-.13.34-.34.11h0Z"/>
      <path d="M318.02,106.32h3.17c.25,0,.31.45-.45.45h-2.72c-.15,0-.25-.35,0-.45h0Z"/>
      <path d="M321.93,110.5c.28.08.19.45-.11.45h-3.06c-.19,0-.19-.45,0-.45.65,0,2.74-.13,3.17,0Z"/>
      <path class="cls-4" d="M325.45,105.76h-3.4c-.04-.36.06-.42.39-.46.49-.06,2.27-.08,2.73,0,.28.05.31.18.28.45h0Z"/>
      <path d="M318.98,118.77c-.18-.04-.18-.23,0-.35.43-.28,2.45.02,3.07-.11.37.07.48.45,0,.45-.73,0-2.48.14-3.06,0h0Z"/>
      <path d="M318.81,116.84c0-.31-.08-.33.22-.38.51-.09,2.81-.18,3.13.03.21.14.12.35,0,.35h-3.35Z"/>
      <path d="M321.09,104.39c.35.1.14.45-.23.45h-2.95c-.17,0-.19-.28.06-.4.18-.09.61-.06.85-.06.49,0,1.93-.1,2.27,0h0Z"/>
      <path class="cls-4" d="M318.58,111.85c-.03-.22.09-.3.28-.34.24-.04,3.03-.1,3.16,0,.14.1.06.21.07.35h-3.51Z"/>
      <path class="cls-4" d="M318.87,109.93s-.12.18-.23,0c-.05-.09-.1-.3-.06-.34.11-.11,2.7.08,3.14-.09.37.07.44.43.2.43-1.02,0-2.04,0-3.06,0h0Z"/>
      <path class="cls-4" d="M322.32,117.75l-3.13.08c-.67-.09-.44-.37.12-.43.44-.04,2.48-.09,2.82.02.15.05.22.17.19.32Z"/>
      <path d="M325.28,104.39c.09.03.21.22.17.34-.41-.07-3.39.13-3.51,0-.07-.07.1-.34.17-.34.66,0,2.71-.13,3.17,0Z"/>
      <rect x="322.05" y="106.32" width="3.4" height=".34"/>
      <path class="cls-7" d="M323.63,99.86c1.03.54-.12,1.36-.56.61-.22-.37-.02-.4.22-.49.12-.04.21-.09.34-.11Z"/>
      <path class="cls-12" d="M320.01,97.48c-.36,0-.72.01-1.08,0-.17,0-.45.1-.39-.17.33-.27,1.43-.39,1.47.17h0Z"/>
      <path class="cls-9" d="M324.2,97.48c-.18-.1-1.59.09-1.58-.17,0-.29,1.6-.49,1.58.17Z"/>
    </g>
    <g id="jfFtWj.tif">
      <g>
        <path d="M79.01,76.83c-.66-.22-1.46-.2-2.19-.36-1.02-.22-3.14-1.04-3.33-2.19-.42-2.58,3.18-3.5,5.08-3.98.08-.4-.15-.28-.44-.29l.15-.73h3.13c.52,0,.66.42.44.87-.2.4-2.07,1.54-2.4,2.1l-.44.07c-.12-.38-.08-.65-.07-1.01,0-.1.22-.21-.14-.15-.72.13-2.47.75-3.09,1.12-2.05,1.25-1.46,2.24.54,3,4.89,1.88,16.79-.91,21.29-3.58.53-.31,1.12-1.18,1.75-.98.99.33-.97,1.64-1.31,1.85-3.53,2.17-11.36,3.98-15.47,4.23h-3.49Z"/>
        <path d="M35.67,62.32c.66-1.2,1.89-1.77,3.2-2.03-.49-1.52.36-.83,1.11-.78.84.05,1.73.03,2.59.06.38.01.96-.44,1.1.36.19,1.07-.53.67-1.17.86-.85.25-1.54,1.51-2.36,1.36-.13-.02-.41-.16-.48-.27v-.87c-1.27.21-4.66,1.6-2.28,2.86,6.5,3.45,13.5.72,20.18.48.36-.01,1.14-.07,1.43.02.31.1.35.61.1.78-.23.16-2.5.16-2.99.21-5.67.59-10.65,2.01-16.4.39-1.4-.39-3.16-.96-4.04-2.13v-1.31Z"/>
        <path d="M69.85,57.53c1.34-.28,1.23.37,1.88.95s1.45.3,2.26.36c.33.02,1.43.45,1.53.07.05-.34-.21-.54-.45-.71-.89-.68-2.84-1.17-3.13-2.39-.53-2.22,1.22-2.21,2.1-3.83-.23-.32-.23-.75-.38-1.07-.2-.4-.73-.86-.84-1.2-.28-.88-.15-2.13-.37-3.11-.09-.37-.97-2.45-.86-2.55.41-.08.62.12.92.31.98.64,1.6,1.73,2.76,2.32.85.44,1.86.55,2.64,1.13,1.65,1.23.76,3.39,1.82,4.57s4.29.56,4.8,2.83c1.07-.8,2.53-.03,3.49-.8l-4.17-4.26c-.52-.12-2.63.88-3.35.97-.67.08-.7-1.61-.83-2.16-.09-.36-.34-.64-.37-1.01l3.1-.7,9.41,9.77-8.41,2.85c-.37,1.72,1.44,2.66,2.31,3.9l-17.41,5.49-1.29-.99c.62-.97-.18-1.59-.5-2.47.13-.12,3.1.24,3.52.33,1.12.24,2.07.99,3.31.83.13-.42-.33-.57-.41-.83-.19-.62.57-1.19.78-1.78s.24-1.37.22-2.03c.13-.17,2,1.11,2.26,1.15.8.15,1.74-.11,2.54-.14.16-.64-.72-1.02-.84-1.41-.3-.97.66-1.38.89-2.25.1-.39.17-.96.1-1.35-.09-.44-.51-.48-.79-.81-.74-.88-.97-1.82-.52-2.89l2.47,2.1c1.71-.2,2.96,1.67,4.3,1.8s.9-.07,1.51-.78,1.75-.2,2.62-.43c.8-.21,2.17-1.69.58-1.67l-.08.6c-1.09.5-2.37.1-3.45.31-.5.1-.39.32-.61.69-.76-.79-1.91-.88-2.84-1.37s-3.07-2.42-3.54-3.28c-.2-.37-.28-.87-.55-1.34-.56-.96-1.8-2.53-3.03-2.42.13,1.6,1.91,2.39,1.19,4.02-.29.66-.79,1.3-1.15,2.04-.18.37-.5.11-.3,1.09.27,1.33,1.48,1.45,2.21,2.29,1.05,1.2.21,1.01-.43,1.59-.25.23-.52.94-.75,1l-3.25-.86c-.09.1-.1,2.14-.33,2.65-.22.47-.71.55-.98.9-.2.26-.3.87-.52.94-1.35-.32-3.23,0-4.41-.8-.47-.32-.76-1.02-1.46-.93v2.97c0,.11.47.46.22.65-.25-.37-1.25-1.05-1.35-1.41-.16-.53.05-1.39-.04-1.99-.1-.64-.67-1.31-.43-2.11.26,0,.53-.03.79,0,.92.15,1.81,1.65,2.84,1.95.75.22,1.83.24,2.62.5-.2-1.16.17-1.18.7-1.84.74-.92-.27-1.3-.27-1.57v-2.39Z"/>
        <path d="M101.97,54.95c.78-.09,1.4.79,1.93,1.34,2.4,2.49,4.73,5.07,7.1,7.58l-.05.48-17.6,5.95c-.31-.04-2.38-2.2-2.77-2.61-2.21-2.29-4.26-4.75-6.45-7.06l.23-.45,17.61-5.22ZM102.26,55.82c-.19-.11-1.28.17-1.28.34.65.83.94.8,1.89.51l-.61-.84ZM100.38,56.24l-13.65,3.69,1.04,1.22,13.21-3.9-.6-1ZM109.71,63.91l-6.18-6.47-16.66,5.1,6.75,6.74,16.08-5.36ZM87.16,61.45c-.16-.6-.9-.81-.87-1.45l-1.15.53c-.11.39.64.84.86,1.14l1.17-.22Z"/>
        <path d="M86.72,65.08l-19.39,5.92-14.37-14.26-.15-.71,12.09-3.66c.36.58.23,1.23.46,1.87.14.38.9,1.1.55,1.34l-9.49,2.86-.26.33,11.6,11.37,18.04-5.9c.39-.29,1.02.72.91.84ZM61.1,54.94c-.47-.23-.95-.21-1.42,0-.21,1.31,1.78,1.5,1.42,0ZM59.37,56.51c.3-1.19-2.1-1.52-1.71-.24.2.66,1.21.33,1.71.24ZM55.45,56.22l.21,1.18c.33.27.86.06,1.18-.15.37-1.02-.6-1.09-1.39-1.02Z"/>
        <path d="M42.94,55.94l7.52,6.94,5.37-1.68c.3-.01,1.21.5.84.69l-6.26,2.02h-.62c-.02-.43-.26-.59-.53-.86-2.52-2.54-5.69-4.83-8.15-7.39-.38-.4-.82-.64-.63-1.29l17.95-5.54.58.15,3.7,3.42c-1.28,1.24-2.37-1.56-3.25-1.52l-16.53,5.08ZM42.21,55.35l16.58-5.3c-.17-.19-.31-.4-.58-.31l-15.99,4.89v.71Z"/>
        <path d="M68.83,56.81c-1.23.23-2.61-2.26-2.84-3.19s.17-1.39-.64-2.26c-.35-.37-.97-.48-.88-1.08,1.56-.04,2.96.25,4.08,1.37.12.12.91,1.03.94,1.09.39.84-1.03,3-.65,4.06Z"/>
        <path d="M70,54.05c.41-1.08-.07-1.97-.58-2.9l2.89-.86c.13.55.91.8.67,1.43-.3.8-1.53,1.22-1.89,2.05l-1.1.28Z"/>
        <path class="cls-8" d="M58.21,49.75c.27-.1.41.12.58.31l-16.58,5.3"/>
        <polygon points="105.05 60.43 104.97 60.88 90.8 65.08 90.88 64.63 105.05 60.43"/>
        <polygon points="105.78 61.16 105.69 61.61 91.96 66.09 92.05 65.64 105.78 61.16"/>
        <polygon points="103.6 59.56 103.51 60.01 89.93 64.35 90.01 63.9 103.6 59.56"/>
        <polygon points="100.25 64.35 100.17 64.8 92.54 66.96 92.63 66.51 100.25 64.35"/>
        <path d="M93.27,61.59l-.09.45c-.56.12-3.92,1.37-4.13,1.15l.1-.44,4.12-1.16Z"/>
      </g>
    </g>
  </g>
  <g id="Layer_5" data-name="Layer 5">
    <polyline class="cls-3" points=".5 96.91 .5 125.92 327.67 125.92 327.67 89.31"/>
  </g>
</svg>